<?xml version="1.0" standalone="no"?>
<!DOCTYPE svg PUBLIC "-//W3C//DTD SVG 20010904//EN"
 "http://www.w3.org/TR/2001/REC-SVG-20010904/DTD/svg10.dtd">
<svg version="1.0" xmlns="http://www.w3.org/2000/svg"
 width="500.000000pt" height="500.000000pt" viewBox="0 0 500.000000 500.000000"
 preserveAspectRatio="xMidYMid meet">

<g transform="translate(0.000000,500.000000) scale(0.100000,-0.100000)"
fill="#313131" stroke="none">
<path d="M3510 4613 c-41 -7 -88 -10 -103 -7 -40 8 -237 -7 -237 -18 0 -6 19
-7 49 -3 58 8 140 -6 201 -34 l45 -21 -80 5 c-178 13 -289 31 -280 45 8 13 -1
13 -26 0 -10 -6 -19 -18 -19 -26 0 -13 -7 -14 -42 -7 -71 13 -484 9 -502 -6
-11 -9 -34 -11 -81 -6 -75 8 -297 -3 -290 -15 2 -4 31 -10 62 -14 33 -4 82
-20 113 -36 30 -16 52 -29 49 -30 -8 0 -217 29 -246 35 -12 3 -34 7 -48 10
-14 3 -23 10 -20 15 8 13 -21 13 -46 0 -17 -10 -19 -22 -19 -128 1 -83 5 -124
15 -142 8 -14 14 -52 15 -86 0 -34 3 -89 6 -123 7 -59 8 -61 35 -61 17 0 35
-9 47 -25 11 -13 30 -29 43 -35 13 -6 39 -22 58 -35 18 -14 49 -29 68 -34 38
-11 137 1 158 19 21 17 26 -2 21 -77 -3 -37 -7 -183 -10 -323 -8 -326 -17
-533 -23 -543 -3 -5 -14 -6 -26 -3 -23 6 -87 -18 -87 -32 0 -14 59 -23 80 -12
25 14 37 13 43 -4 4 -10 0 -12 -14 -9 -11 3 -19 0 -19 -6 0 -8 14 -10 45 -7
26 3 45 2 45 -4 0 -6 6 -10 13 -10 8 0 22 -9 32 -20 10 -11 26 -20 37 -20 10
0 18 -5 18 -11 0 -5 -6 -7 -12 -3 -7 4 -5 -1 4 -12 14 -14 20 -15 30 -6 9 9 9
12 0 12 -19 0 -14 21 10 41 16 15 24 16 35 7 11 -8 17 -7 28 8 8 10 15 26 15
34 1 10 4 9 10 -5 7 -17 9 -17 9 -2 1 26 17 20 31 -12 13 -33 4 -63 -12 -40
-6 11 -8 9 -6 -6 2 -16 -2 -19 -21 -17 -14 1 -28 -3 -33 -10 -6 -10 -8 -10 -8
0 0 7 -4 10 -10 7 -16 -10 -12 -25 7 -25 9 0 13 -3 10 -7 -4 -3 0 -17 8 -30 9
-13 12 -23 8 -24 -5 0 1 -4 12 -9 25 -11 95 -13 95 -2 0 4 8 8 18 8 9 0 33 4
52 8 l35 7 -24 -19 c-19 -16 -41 -20 -101 -21 -70 -1 -78 1 -107 28 -18 16
-30 30 -28 32 1 2 -3 10 -10 16 -9 8 -16 9 -20 3 -3 -6 -1 -10 5 -10 7 0 10
-6 7 -14 -3 -8 -1 -17 6 -19 9 -3 8 -10 -2 -30 -11 -21 -17 -24 -28 -16 -7 6
-13 18 -13 25 0 19 -68 92 -101 110 -16 8 -53 14 -84 14 -30 0 -55 5 -55 10 0
6 6 10 13 10 20 1 -25 30 -46 30 -15 0 -18 -5 -13 -24 6 -23 3 -25 -47 -32
l-52 -7 60 -12 c116 -21 208 -85 284 -196 l43 -64 -42 48 c-30 34 -48 47 -61
44 -21 -6 -27 9 -7 15 9 3 9 6 0 12 -7 4 -12 2 -12 -3 0 -6 -7 -11 -15 -11
-18 0 -20 -16 -2 -23 9 -4 9 -6 0 -6 -7 -1 -22 -10 -33 -21 -20 -20 -20 -21 2
-24 6 0 13 -7 16 -15 3 -8 0 -11 -6 -8 -5 4 -15 0 -22 -8 -10 -12 -9 -16 4
-21 9 -3 16 -10 16 -16 0 -5 -5 -6 -10 -3 -6 3 -19 3 -30 0 -17 -5 -18 -10 -9
-26 9 -19 9 -19 -10 -10 -26 15 -36 14 -24 -1 5 -7 8 -19 7 -25 -1 -7 -2 -17
-3 -23 0 -5 -6 -10 -12 -10 -5 0 -8 4 -5 9 8 13 -27 8 -41 -6 -7 -6 -13 -17
-13 -23 0 -6 -5 -8 -12 -4 -7 5 -9 2 -5 -8 4 -12 0 -15 -18 -13 -14 1 -30 7
-37 12 -8 6 -22 7 -33 2 -18 -7 -18 -8 5 -9 23 -1 23 -2 5 -9 -11 -5 -26 -6
-34 -3 -10 4 -12 1 -6 -8 5 -8 4 -11 -3 -6 -6 4 -8 14 -5 22 5 14 3 14 -14 6
-17 -9 -22 -7 -33 14 -10 18 -19 23 -33 18 -16 -5 -19 -3 -13 11 8 21 -20 69
-34 60 -21 -13 -9 44 15 69 l25 27 5 307 c6 358 8 350 -91 397 -72 34 -236 69
-287 61 -25 -4 -36 -3 -32 4 8 13 -209 13 -346 0 -241 -24 -449 -90 -518 -164
l-24 -25 13 -133 c14 -150 27 -189 76 -219 29 -18 34 -26 34 -60 0 -33 4 -41
25 -49 15 -6 25 -17 25 -29 0 -10 15 -49 34 -86 l33 -66 -22 -9 c-13 -5 -39
-12 -60 -16 -46 -8 -88 -43 -122 -102 -22 -38 -28 -61 -31 -132 -6 -132 6
-170 98 -311 44 -68 79 -130 78 -139 -2 -9 -35 -25 -82 -41 -86 -28 -106 -46
-106 -94 0 -29 -4 -33 -55 -49 -39 -12 -60 -14 -73 -7 -27 15 -133 -20 -145
-47 -7 -14 -32 -29 -73 -42 -35 -12 -64 -24 -64 -26 0 -3 4 -14 10 -24 9 -17
12 -17 82 5 40 12 79 24 87 26 7 2 22 -12 33 -33 17 -32 23 -36 38 -28 10 6
22 10 27 10 4 -1 -4 -8 -19 -16 -16 -8 -28 -21 -28 -28 0 -17 -138 -69 -186
-71 -34 -1 -35 0 -65 79 l-31 80 21 15 c28 22 19 66 -10 50 -16 -8 -21 -5 -31
16 -9 21 -9 28 0 34 8 5 3 16 -17 35 -22 21 -35 26 -53 21 -57 -18 -72 -54
-52 -121 14 -46 21 -200 10 -212 -3 -3 0 -10 7 -16 7 -6 18 -23 24 -38 11 -24
10 -27 -15 -33 -29 -7 -52 14 -52 48 0 10 -4 16 -9 13 -10 -6 0 -55 21 -109
10 -26 15 -28 45 -22 18 3 33 2 33 -3 0 -5 16 -27 35 -48 19 -21 35 -48 35
-60 0 -12 21 -47 46 -78 45 -54 48 -56 94 -56 58 0 76 17 62 57 -7 19 -11 22
-11 10 -1 -10 -5 -15 -11 -12 -5 3 -10 0 -10 -7 0 -7 -6 -4 -12 6 -9 16 -7 22
9 33 20 13 20 17 7 71 -7 31 -13 60 -14 64 0 3 30 16 66 28 63 21 69 22 94 6
25 -14 31 -14 74 0 25 9 49 21 53 27 11 17 10 41 -2 50 -6 5 -4 7 5 6 8 -1 22
1 30 4 8 4 34 13 57 21 42 15 42 15 63 -15 25 -34 46 -36 117 -9 l52 20 130
-153 c72 -83 144 -173 160 -198 46 -73 114 -139 143 -139 14 0 43 12 64 26
l39 27 77 -42 c77 -42 77 -42 115 -26 58 24 73 43 73 90 0 55 11 65 63 53 23
-5 59 -7 80 -5 42 6 217 85 217 99 0 5 5 6 12 2 7 -4 8 -3 4 4 -5 9 -17 7 -44
-4 -50 -22 -82 -28 -82 -16 0 6 12 15 28 20 17 7 21 11 10 11 -31 2 -19 21 25
41 37 17 38 18 11 13 -61 -10 -42 15 38 51 44 20 79 39 76 41 -3 3 -30 -6 -60
-19 -35 -15 -60 -21 -69 -16 -17 11 -17 11 71 52 41 19 82 43 90 52 13 17 12
17 -25 1 -94 -40 -116 -47 -122 -41 -9 8 -7 10 72 44 43 19 75 39 82 54 7 12
18 23 25 23 20 0 22 -37 2 -52 -10 -7 -12 -13 -6 -13 7 0 12 -9 12 -21 0 -11
4 -18 8 -15 5 3 33 -1 63 -9 30 -8 95 -15 144 -15 114 0 172 24 232 96 32 39
53 54 96 67 29 9 66 17 81 17 82 0 235 63 334 137 42 32 64 41 110 46 32 4 84
17 117 29 73 28 228 113 246 134 7 9 67 43 133 76 67 33 139 73 161 89 36 25
44 27 80 19 62 -14 125 -1 167 34 21 17 38 38 38 46 0 8 19 26 43 39 49 28
144 100 169 127 9 11 23 61 32 123 16 96 16 105 0 122 -9 10 -19 39 -22 64 -3
34 -8 45 -18 41 -8 -4 -20 -8 -28 -12 -10 -4 -15 8 -20 46 -17 129 -127 358
-220 459 -30 32 -30 33 -6 25 14 -5 55 -8 93 -7 l67 2 31 -42 c18 -23 41 -64
53 -91 19 -41 21 -55 12 -87 -8 -31 -6 -55 8 -113 11 -41 22 -79 25 -85 4 -6
52 -13 106 -17 93 -6 104 -5 157 19 57 25 61 31 73 99 6 37 5 38 -19 28 -17
-6 -26 -5 -30 3 -2 7 -5 4 -5 -5 -1 -11 -9 -18 -20 -18 -15 0 -19 10 -23 56
-4 43 -10 60 -30 77 -37 33 -150 196 -145 210 2 6 0 20 -5 30 -8 16 -7 17 9 9
12 -6 30 -5 52 2 l34 12 -46 39 c-47 39 -47 39 -27 60 22 24 44 110 60 245 6
52 18 133 26 179 13 77 13 86 -3 103 -26 29 -196 78 -308 88 -163 15 -302 13
-309 -5 -3 -8 -15 -15 -26 -15 -22 0 -26 10 -10 26 7 7 -7 9 -47 6 -87 -6
-195 -30 -212 -46 -15 -15 -49 -260 -50 -359 -1 -66 17 -84 69 -70 39 10 39
10 85 -43 l45 -53 -37 -6 c-158 -26 -203 -43 -94 -37 60 3 100 0 147 -13 100
-27 274 -149 248 -174 -5 -6 -32 8 -69 36 -158 121 -320 148 -471 79 -30 -14
-54 -22 -54 -19 0 3 15 19 33 36 21 20 25 26 10 18 -12 -6 -25 -16 -28 -21
-18 -29 -22 8 -21 194 1 112 4 202 9 199 4 -2 7 8 6 24 0 25 -1 26 -9 8 -8
-19 -9 -19 -9 3 -1 12 5 22 12 22 7 0 8 3 2 8 -10 6 -12 41 -5 67 4 16 0 159
-4 154 -3 -3 -18 -249 -20 -331 0 -10 -4 -18 -8 -18 -8 0 -4 192 8 398 4 66
10 102 17 103 7 0 23 3 37 5 20 3 34 -5 60 -31 38 -39 64 -43 180 -25 116 19
125 24 153 89 26 60 28 78 57 424 6 70 8 132 4 138 -3 6 -18 8 -33 5 -19 -5
-22 -4 -11 4 12 8 10 10 -11 10 -15 0 -57 9 -95 21 -56 17 -98 21 -238 23
-108 2 -199 -2 -246 -11z m133 -10 c-13 -2 -35 -2 -50 0 -16 2 -5 4 22 4 28 0
40 -2 28 -4z m102 -15 c7 -7 2 -9 -15 -4 -14 3 -31 6 -38 6 -7 0 -10 5 -7 10
7 12 44 4 60 -12z m238 -24 c16 -3 25 -10 20 -14 -11 -11 -123 9 -123 22 0 10
23 8 103 -8z m-1322 -29 c-1 -5 -5 -10 -11 -9 -5 1 -25 2 -42 4 l-33 2 30 8
c37 10 56 8 56 -5z m1003 -1 c23 -9 20 -24 -5 -24 -33 0 -109 22 -116 33 -6
10 89 3 121 -9z m-928 -9 c18 -14 18 -14 -8 -15 -18 0 -28 5 -28 15 0 19 11
19 36 0z m529 5 c54 -6 56 -7 18 -9 -24 0 -43 -5 -43 -10 0 -27 -64 -16 -98
16 -11 11 -6 13 25 12 21 -1 65 -5 98 -9z m823 -11 c-10 -5 -18 -19 -18 -30 0
-11 -7 -22 -15 -25 -12 -5 -13 -10 -4 -20 9 -11 8 -14 -2 -15 -10 0 -11 -2 -1
-6 25 -10 -1 -23 -46 -23 -31 0 -42 3 -33 9 7 5 10 14 7 20 -4 6 -3 11 2 11 5
0 9 16 9 35 -1 34 -3 35 -42 37 -40 1 -40 1 10 8 84 11 153 11 133 -1z m-1054
-35 c35 -13 -7 -22 -63 -13 -81 13 -93 33 -15 26 33 -4 69 -9 78 -13z m-478
-25 c69 -13 81 -18 63 -30 -26 -17 -156 11 -144 31 8 12 8 12 81 -1z m189 1
c3 -6 -1 -7 -9 -4 -18 7 -21 14 -7 14 6 0 13 -4 16 -10z m-560 -19 c54 -7 60
-9 27 -10 -39 -1 -43 -4 -48 -31 -5 -23 -12 -30 -29 -30 -40 0 -55 11 -55 40
0 18 -7 31 -22 38 -20 10 -17 10 17 6 22 -3 72 -9 110 -13z m933 -2 c-11 -6
-18 -22 -18 -39 0 -17 -4 -30 -8 -30 -4 0 -8 -15 -7 -32 0 -33 0 -33 -52 -36
-32 -2 -53 1 -53 7 0 6 6 11 13 12 10 0 10 2 0 6 -21 8 -15 23 10 24 16 1 18
2 5 6 -12 3 -18 14 -18 34 0 27 -2 29 -42 30 -24 0 -38 2 -33 5 12 5 148 21
190 22 25 1 27 0 13 -9z m942 -61 c0 -6 -8 -20 -17 -31 -13 -14 -14 -21 -6
-24 8 -3 4 -12 -9 -25 -14 -14 -23 -18 -26 -10 -2 7 -12 12 -23 12 -10 0 -19
5 -19 11 0 6 9 9 20 6 11 -3 20 -1 20 4 0 5 -6 9 -12 9 -10 0 -10 2 0 9 7 4
15 17 17 27 2 10 4 20 4 22 3 8 51 0 51 -10z m-1899 -35 c12 -15 12 -16 -4
-10 -10 4 -30 7 -43 7 -14 0 -22 4 -19 10 10 16 51 12 66 -7z m3 -22 c11 -4
15 -10 10 -13 -14 -8 -84 3 -78 13 6 11 41 11 68 0z m-22 -31 c18 0 16 -21 -5
-47 -14 -18 -44 1 -50 33 -4 22 -2 25 17 20 11 -3 29 -6 38 -6z m1082 1 c3 -5
-1 -14 -9 -21 -11 -9 -14 -8 -12 9 1 22 12 28 21 12z m-134 -11 c0 -6 -12 -22
-27 -36 l-28 -25 28 4 c18 3 27 0 27 -9 0 -8 -9 -14 -19 -14 -19 0 -31 -18
-31 -47 0 -11 6 -14 23 -10 21 6 21 5 4 -8 -16 -12 -22 -11 -42 7 -32 27 -39
62 -20 98 14 28 14 30 -2 31 -12 1 -10 4 7 9 37 12 80 12 80 0z m189 -3 c-2
-1 -15 -11 -29 -22 l-25 -20 19 23 c11 12 24 22 29 22 6 0 8 -1 6 -3z m-1131
-80 c-34 -9 -58 -3 -58 13 0 6 4 9 8 6 4 -2 14 -1 21 3 7 5 23 3 37 -3 l23
-11 -31 -8z m146 -102 l6 -40 -15 45 c-17 53 -18 57 -6 45 5 -6 12 -28 15 -50z
m956 -38 c13 -3 20 0 20 10 0 13 2 13 15 -1 29 -28 15 -31 -65 -13 -8 2 -16
15 -18 28 l-3 24 15 -21 c8 -12 25 -24 36 -27z m-9 -44 c33 -22 55 -27 122
-31 86 -5 119 -20 87 -39 -12 -8 -19 -31 -25 -85 -4 -40 -9 -84 -10 -98 -2
-14 -6 -52 -9 -85 -10 -109 -17 -169 -26 -240 -5 -38 -11 -95 -14 -126 -3 -31
-8 -84 -12 -118 -7 -65 -9 -67 -80 -62 -11 1 -31 -7 -44 -17 l-24 -19 37 -7
c27 -5 46 -2 74 12 31 16 40 17 50 7 6 -7 9 -16 5 -21 -4 -4 -2 -4 5 -1 15 9
127 -34 113 -43 -7 -4 -1 -9 14 -12 14 -3 26 -1 26 5 0 5 6 4 14 -2 12 -10 13
-9 9 7 -6 25 13 38 32 22 11 -9 16 -5 24 22 5 18 10 27 10 20 1 -7 5 -11 11
-7 5 3 18 -12 29 -35 19 -40 16 -51 -8 -27 -10 9 -10 7 0 -11 8 -12 19 -20 26
-18 7 3 10 -1 7 -8 -5 -13 -12 -15 -58 -19 -22 -2 -22 -3 -8 -24 8 -13 23 -23
33 -23 11 0 19 -4 19 -10 0 -5 -9 -10 -19 -10 -11 0 -23 5 -26 10 -10 15 -25
12 -25 -6 0 -12 -7 -14 -30 -9 -28 6 -30 5 -26 -17 3 -12 13 -45 22 -72 17
-49 11 -84 -15 -79 -6 2 -11 -1 -11 -6 0 -5 -9 -11 -20 -14 -15 -4 -20 0 -20
16 0 12 -11 -7 -24 -43 -43 -117 -50 -130 -68 -130 -19 0 -168 58 -282 109
l-68 31 16 -25 c21 -31 21 -31 -11 -30 -16 1 -40 -5 -55 -12 -36 -17 -49 -10
-75 42 l-22 44 22 8 c29 9 33 10 60 12 18 1 11 8 -33 36 -30 20 -89 52 -130
72 -41 20 -77 37 -79 39 -2 2 -6 57 -8 121 -3 65 -9 120 -14 121 -5 2 -9 8 -9
13 0 6 5 7 10 4 6 -4 10 13 10 44 0 38 -3 49 -14 45 -11 -4 -13 21 -15 133 0
76 -4 201 -7 277 l-7 139 35 -26 c44 -34 87 -35 235 -6 110 21 153 39 153 63
0 8 16 35 35 60 31 41 35 53 35 106 0 33 2 60 5 60 3 0 24 -12 46 -27z m293
-68 c10 -7 16 -17 15 -22 -2 -4 -15 2 -28 15 -26 24 -17 30 13 7z m-1310 -29
c9 3 16 1 16 -5 0 -19 -46 -12 -66 11 l-19 21 26 -17 c14 -9 34 -14 43 -10z
m1290 -12 c21 -8 24 -154 4 -154 -10 0 -10 -2 -1 -8 7 -4 10 -21 8 -37 -2 -17
-4 -38 -4 -47 -1 -10 -6 -18 -12 -18 -5 0 -7 5 -4 10 3 6 2 10 -4 10 -20 0
-21 -19 -1 -25 24 -8 26 -21 5 -29 -40 -15 -58 30 -26 67 12 15 12 17 0 12
-10 -4 -15 3 -16 25 -2 28 0 30 20 25 19 -5 20 -5 5 5 -20 12 -24 40 -7 40 8
0 8 4 1 13 -16 19 -5 117 13 117 2 0 10 -3 19 -6z m76 -159 c0 -58 -4 -105 -9
-105 -4 0 -7 10 -6 23 1 12 3 59 4 105 0 45 3 82 6 82 3 0 5 -47 5 -105z
m-1100 61 c0 -2 -7 -7 -16 -10 -8 -3 -12 -2 -9 4 6 10 25 14 25 6z m204 -244
c3 -140 2 -222 -4 -222 -11 0 -11 10 -16 259 -2 145 1 199 12 189 2 -2 5 -104
8 -226z m1622 190 c-16 -2 -32 0 -37 5 -5 5 7 7 29 4 34 -5 35 -6 8 -9z m-406
-2 c0 -15 -38 -32 -45 -20 -3 5 -3 15 0 20 8 13 45 13 45 0z m-363 -22 c-3 -8
-6 -5 -6 6 -1 11 2 17 5 13 3 -3 4 -12 1 -19z m849 12 c15 -6 24 -13 22 -16
-8 -8 -58 7 -58 17 0 11 3 11 36 -1z m-1854 -27 c-6 -2 -10 -9 -6 -14 3 -5 0
-9 -5 -9 -12 0 -14 13 -4 23 3 4 11 7 17 6 6 0 5 -3 -2 -6z m2091 -13 c4 0 7
-4 7 -10 0 -13 -25 -13 -73 1 -51 14 -38 29 15 18 24 -4 46 -8 51 -9z m-533
-17 c88 -28 22 -27 -100 2 l-105 25 75 -5 c41 -2 100 -12 130 -22z m-1554 -21
c0 -10 -8 -18 -18 -18 -23 0 -23 5 0 22 9 7 17 14 17 14 1 0 1 -8 1 -18z
m1424 -7 l45 -15 -40 6 c-22 3 -47 10 -55 15 -23 13 0 10 50 -6z m414 -12 c17
-5 17 -6 3 -14 -18 -11 -104 7 -114 24 -6 9 67 3 111 -10z m333 -14 c-10 -6
-44 -12 -75 -15 l-57 -3 65 13 c84 17 88 17 67 5z m-1127 -3 c0 -3 -4 -8 -10
-11 -5 -3 -10 -1 -10 4 0 6 5 11 10 11 6 0 10 -2 10 -4z m-94 -47 c3 -5 0 -9
-6 -9 -6 0 -9 -4 -6 -9 3 -4 -6 -13 -20 -19 -23 -11 -24 -11 -14 9 7 11 9 26
7 34 -6 14 29 9 39 -6z m22 -10 c-1 -17 -7 -33 -15 -36 -11 -4 -10 -8 3 -18
17 -12 11 -40 -7 -29 -5 3 -7 9 -4 14 3 5 -3 7 -15 5 -11 -2 -23 2 -26 8 -4 7
-4 9 1 5 11 -10 57 53 51 69 -3 7 -1 13 4 13 5 0 8 -14 8 -31z m72 12 c0 -6
-4 -13 -10 -16 -5 -3 -10 1 -10 9 0 9 5 16 10 16 6 0 10 -4 10 -9z m-1075 -31
c3 -5 1 -10 -4 -10 -6 0 -11 5 -11 10 0 6 2 10 4 10 3 0 8 -4 11 -10z m2145 4
c0 -8 -19 -13 -24 -6 -3 5 1 9 9 9 8 0 15 -2 15 -3z m-1070 -18 c0 -3 -4 -8
-10 -11 -5 -3 -10 -1 -10 4 0 6 5 11 10 11 6 0 10 -2 10 -4z m-89 -72 c12 -15
11 -16 -9 -10 -16 5 -22 3 -22 -8 0 -10 6 -13 15 -10 8 4 15 1 15 -5 0 -15
-21 -13 -43 3 -16 12 -16 14 -2 20 9 3 13 10 10 16 -10 17 22 11 36 -6z m1146
-10 c-3 -3 -12 -4 -19 -1 -8 3 -5 6 6 6 11 1 17 -2 13 -5z m-1015 -34 c3 -17
1 -33 -4 -36 -4 -3 -8 11 -8 30 0 44 6 47 12 6z m-170 -15 c3 3 8 -4 11 -15 5
-21 -17 -40 -30 -26 -4 3 2 6 12 6 17 0 16 3 -6 27 -13 15 -17 22 -8 15 9 -6
18 -9 21 -7z m48 -16 c0 -5 -4 -9 -8 -9 -5 0 -9 7 -9 15 0 8 4 12 9 9 4 -3 8
-9 8 -15z m117 -51 c-3 -7 -5 -2 -5 12 0 14 2 19 5 13 2 -7 2 -19 0 -25z
m-122 12 c3 -5 1 -10 -4 -10 -6 0 -11 5 -11 10 0 6 2 10 4 10 3 0 8 -4 11 -10z
m-35 -10 c0 -5 -5 -10 -11 -10 -5 0 -7 5 -4 10 3 6 8 10 11 10 2 0 4 -4 4 -10z
m-773 -30 c1 -11 -2 -18 -8 -15 -11 7 -12 35 -1 35 4 0 8 -9 9 -20z m930 -32
c-3 -7 -5 -2 -5 12 0 14 2 19 5 13 2 -7 2 -19 0 -25z m-2244 -2 c3 -8 -2 -16
-14 -19 -21 -6 -34 7 -24 23 9 15 32 12 38 -4z m1317 -16 c0 -5 -4 -10 -10
-10 -5 0 -10 5 -10 10 0 6 5 10 10 10 6 0 10 -4 10 -10z m760 -10 c0 -5 -2
-10 -4 -10 -3 0 -8 5 -11 10 -3 6 -1 10 4 10 6 0 11 -4 11 -10z m35 0 c-3 -5
-12 -10 -18 -10 -7 0 -6 4 3 10 19 12 23 12 15 0z m-2258 -36 c-3 -3 -12 -4
-19 -1 -8 3 -5 6 6 6 11 1 17 -2 13 -5z m257 0 c9 -3 16 -10 16 -16 0 -10 -70
0 -84 13 -11 10 43 12 68 3z m1206 -20 c0 -14 -4 -23 -10 -19 -5 3 -10 15 -10
26 0 10 5 19 10 19 6 0 10 -12 10 -26z m30 -4 c0 -16 -5 -30 -10 -30 -6 0 -9
12 -6 28 5 33 5 32 11 32 3 0 5 -13 5 -30z m710 20 c0 -5 -7 -7 -15 -4 -8 4
-15 8 -15 10 0 2 7 4 15 4 8 0 15 -4 15 -10z m-2487 -14 c6 -15 -12 -26 -43
-26 -29 0 -34 19 -8 29 33 14 45 13 51 -3z m2473 -15 c-4 -5 12 -12 34 -16 25
-4 40 -12 40 -21 0 -8 -6 -14 -12 -15 -7 0 -4 -4 7 -9 21 -9 19 -10 -47 -13
-20 -1 -34 1 -32 5 3 4 -4 12 -15 17 -22 12 -38 45 -19 39 7 -3 19 1 26 9 15
15 26 17 18 4z m-1871 -21 c10 -11 16 -22 14 -25 -7 -6 -49 24 -49 36 0 15 16
10 35 -11z m-472 -7 c-7 -2 -19 -2 -25 0 -7 3 -2 5 12 5 14 0 19 -2 13 -5z
m932 -13 c3 -5 1 -10 -4 -10 -6 0 -11 5 -11 10 0 6 2 10 4 10 3 0 8 -4 11 -10z
m682 -22 c-3 -8 -6 -5 -6 6 -1 11 2 17 5 13 3 -3 4 -12 1 -19z m-854 -4 c56
-9 40 -29 -26 -32 -59 -3 -123 20 -111 40 6 10 37 8 137 -8z m884 -16 c-3 -8
-6 -5 -6 6 -1 11 2 17 5 13 3 -3 4 -12 1 -19z m-1216 -65 c13 -16 12 -17 -3
-4 -10 7 -18 15 -18 17 0 8 8 3 21 -13z m1034 -3 c13 -6 15 -9 5 -9 -8 0 -22
4 -30 9 -18 12 -2 12 25 0z m-620 -16 c-23 -17 -124 -50 -181 -59 -22 -3 -2 6
43 20 45 13 97 31 115 39 43 19 47 19 23 0z m-990 -55 c33 -9 52 -18 43 -18
-29 -2 -141 39 -168 60 -23 18 -21 18 20 -2 25 -12 72 -30 105 -40z m395 50
c55 -12 63 -24 24 -39 -68 -26 -202 8 -167 43 10 11 86 8 143 -4z m1199 -81
c41 -21 53 -38 29 -38 -9 0 -8 -4 2 -10 11 -7 7 -10 -17 -10 -37 0 -101 49
-89 68 10 17 29 15 75 -10z m1260 8 c-16 -16 -109 -31 -109 -19 0 9 59 25 104
30 16 2 17 0 5 -11z m110 -44 c24 9 31 4 96 -64 39 -40 95 -111 126 -158 66
-101 149 -245 149 -258 0 -14 -120 -56 -130 -46 -4 5 -24 49 -44 97 -67 163
-188 379 -226 402 -5 3 -15 16 -21 28 -11 21 -10 21 6 5 14 -13 23 -14 44 -6z
m-1145 -147 c3 -8 2 -14 -2 -14 -20 3 -23 -3 -11 -18 13 -16 12 -17 -3 -4 -14
10 -15 18 -7 32 12 23 15 23 23 4z m-300 -189 c-10 -8 -21 -12 -24 -10 -5 6
21 24 34 24 6 0 1 -6 -10 -14z m459 -59 c-9 -14 -23 4 -23 31 l1 27 13 -25 c8
-14 12 -28 9 -33z m620 46 c-7 -2 -19 -2 -25 0 -7 3 -2 5 12 5 14 0 19 -2 13
-5z m-1098 -43 c3 -5 -1 -10 -10 -10 -9 0 -13 5 -10 10 3 6 8 10 10 10 2 0 7
-4 10 -10z m283 -13 c47 -50 123 -195 190 -365 40 -99 72 -187 72 -195 0 -12
-65 -42 -152 -71 -29 -9 -47 32 -74 161 -32 157 -78 311 -118 398 -31 67 -32
71 -13 72 11 1 25 7 30 12 17 17 42 13 65 -12z m-308 -37 c0 -5 -2 -10 -4 -10
-3 0 -8 5 -11 10 -3 6 -1 10 4 10 6 0 11 -4 11 -10z m474 -26 c5 -14 4 -15 -9
-4 -17 14 -19 20 -6 20 5 0 12 -7 15 -16z m-1843 -32 c64 -41 163 -152 243
-270 38 -56 74 -102 80 -102 6 1 47 7 91 15 79 15 80 14 99 -8 24 -27 152
-291 177 -363 18 -55 36 -153 26 -143 -4 3 -8 16 -10 30 -3 15 -11 24 -22 24
-10 0 -19 8 -21 18 -1 9 4 17 12 17 11 0 11 5 3 24 l-11 24 -67 -19 c-36 -11
-75 -22 -87 -25 -18 -5 -26 7 -61 78 -23 46 -63 113 -90 149 -26 36 -61 84
-76 105 -16 21 -60 88 -99 148 -81 125 -188 243 -253 277 -49 26 -55 35 -27
42 35 9 49 6 93 -21z m2018 24 c-2 -1 -19 -8 -36 -14 -37 -12 -45 -6 -10 8 22
9 54 13 46 6z m-679 -36 c0 -5 -4 -10 -10 -10 -5 0 -10 5 -10 10 0 6 5 10 10
10 6 0 10 -4 10 -10z m-55 -20 c3 -5 2 -10 -4 -10 -5 0 -13 5 -16 10 -3 6 -2
10 4 10 5 0 13 -4 16 -10z m718 -7 c-7 -2 -21 -2 -30 0 -10 3 -4 5 12 5 17 0
24 -2 18 -5z m36 -6 c-2 -1 -15 -11 -29 -22 l-25 -20 19 23 c11 12 24 22 29
22 6 0 8 -1 6 -3z m122 -53 c32 -29 24 -53 -25 -75 -33 -14 -50 -17 -68 -10
-12 6 -17 10 -10 10 8 1 12 18 12 52 l0 52 36 -6 c20 -3 45 -14 55 -23z
m-1083 -9 c-10 -10 -188 -63 -188 -56 0 4 37 19 83 33 81 26 115 33 105 23z
m52 -80 c0 -1 -39 -15 -87 -30 -78 -24 -184 -42 -170 -29 13 13 215 70 235 66
12 -2 22 -6 22 -7z m950 -42 c7 -21 21 -53 32 -70 20 -34 17 -53 -8 -53 -8 0
-14 -6 -14 -14 0 -11 -9 -13 -37 -10 -29 4 -34 3 -23 -5 13 -10 13 -11 0 -12
-8 0 -25 -2 -37 -5 -45 -8 -94 113 -59 148 8 9 13 18 10 21 -3 3 5 3 18 0 18
-4 20 -3 8 6 -13 9 -12 11 5 9 43 -3 76 2 70 12 -3 6 0 10 9 10 8 0 20 -16 26
-37z m426 -27 c11 -16 9 -21 -13 -42 -14 -13 -32 -24 -39 -24 -8 0 -10 -8 -7
-22 l6 -23 -22 21 c-30 28 -53 96 -38 107 21 13 99 2 113 -17z m-1381 -6 c-4
-7 2 -9 19 -4 14 3 26 2 26 -2 0 -12 -200 -74 -200 -63 0 5 11 11 25 15 14 4
24 8 21 11 -2 2 -25 -3 -51 -12 -26 -8 -50 -13 -53 -11 -6 6 -7 6 108 45 93
32 115 36 105 21z m45 -74 c0 -7 -221 -78 -226 -73 -6 6 184 76 209 76 9 1 17
-1 17 -3z m35 -25 c-16 -14 -195 -70 -195 -61 0 5 39 22 88 38 90 32 123 39
107 23z m-10 -59 c-17 -14 -215 -81 -215 -73 0 5 44 24 98 44 97 35 134 44
117 29z m45 -29 c0 -10 -190 -76 -197 -69 -3 3 0 8 8 11 186 69 189 70 189 58z
m1552 -38 c15 -20 8 -35 -19 -41 -15 -4 -38 -13 -52 -20 -40 -21 -63 -16 -94
21 l-28 34 37 -6 c26 -4 35 -3 30 5 -4 7 1 10 14 7 12 -2 23 2 26 10 3 7 12
11 19 9 7 -3 16 0 20 6 7 11 30 -1 47 -25z m-1666 -56 c-60 -22 -111 -37 -114
-34 -3 2 1 7 9 9 8 3 50 19 94 35 44 16 89 30 100 30 11 0 -29 -18 -89 -40z
m144 2 c0 -10 -176 -74 -191 -69 -7 2 121 55 189 77 1 1 2 -3 2 -8z m1093 -9
c25 -22 21 -45 -10 -59 -46 -20 -88 -35 -89 -31 0 2 -8 -3 -16 -9 -12 -11 -18
-10 -32 6 -9 10 -14 25 -11 34 4 8 1 18 -6 23 -9 5 -10 2 -5 -11 5 -15 4 -16
-9 -5 -18 15 -2 32 22 23 7 -3 13 0 13 6 0 8 5 9 19 2 14 -8 22 -7 32 5 7 8
18 13 26 10 7 -3 13 0 13 8 0 18 31 17 53 -2z m-1118 -41 c-6 -5 -21 -11 -35
-15 -21 -5 -20 -3 5 9 35 17 42 18 30 6z m-1157 -91 c32 -55 8 -38 -38 27 -29
41 -31 46 -11 33 13 -9 35 -36 49 -60z m562 -119 c0 -12 -39 -21 -45 -11 -3 5
3 11 12 13 29 8 33 7 33 -2z m-678 -13 c6 -17 -31 -54 -64 -67 -25 -10 -29 -8
-44 20 -8 17 -14 32 -12 34 2 2 72 17 110 24 3 0 8 -5 10 -11z m-182 -8 c0 -5
-4 -10 -10 -10 -5 0 -10 5 -10 10 0 6 5 10 10 10 6 0 10 -4 10 -10z m797 -20
c-1 -21 -12 -26 -22 -10 -3 6 -11 10 -16 10 -6 0 -8 -4 -5 -9 3 -5 -1 -11 -8
-14 -24 -9 -25 17 -2 30 33 19 55 16 53 -7z m73 4 c0 -2 -7 -4 -15 -4 -8 0
-15 4 -15 10 0 5 7 7 15 4 8 -4 15 -8 15 -10z m-34 -21 c-7 -7 -26 7 -26 19 0
6 6 6 15 -2 9 -7 13 -15 11 -17z m-808 -67 c-2 -2 -34 -15 -72 -29 -75 -29
-96 -25 -96 19 0 12 -4 26 -10 29 -15 9 -12 25 5 25 8 0 15 -6 16 -12 0 -9 2
-9 5 -2 3 6 15 9 27 7 12 -2 40 0 62 5 36 8 41 6 53 -16 8 -13 12 -25 10 -26z
m-281 38 c-3 -3 -12 -4 -19 -1 -8 3 -5 6 6 6 11 1 17 -2 13 -5z m1803 -171 c0
-7 -2 -13 -4 -13 -2 0 -12 -3 -22 -7 -14 -5 -15 -3 -7 12 6 10 8 27 5 39 -4
21 -4 21 11 1 9 -11 17 -26 17 -32z m-2110 -37 c0 -15 -6 -10 -19 19 -23 48
-26 42 -7 -13 10 -27 11 -44 5 -48 -13 -8 -14 -7 -33 40 -15 36 -15 40 1 52
16 12 20 10 36 -7 9 -12 17 -31 17 -43z"/>
<path d="M4025 4370 c-3 -6 1 -7 9 -4 18 7 21 14 7 14 -6 0 -13 -4 -16 -10z"/>
<path d="M3430 3950 c-9 -6 -10 -10 -3 -10 6 0 15 5 18 10 8 12 4 12 -15 0z"/>
<path d="M2732 3350 c0 -19 2 -27 5 -17 2 9 2 25 0 35 -3 9 -5 1 -5 -18z"/>
<path d="M2732 3275 c0 -16 2 -22 5 -12 2 9 2 23 0 30 -3 6 -5 -1 -5 -18z"/>
<path d="M3203 3037 c2 -33 2 -33 55 -35 63 -1 130 -31 187 -83 29 -27 45 -35
55 -29 8 5 19 5 26 -1 8 -7 10 -1 8 18 -4 38 -81 107 -133 121 -25 6 -55 7
-79 1 -20 -5 -47 -9 -60 -9 -19 0 -21 3 -13 19 12 22 5 31 -25 31 -19 0 -22
-5 -21 -33z"/>
<path d="M3555 2960 c-3 -5 -1 -10 4 -10 6 0 11 5 11 10 0 6 -2 10 -4 10 -3 0
-8 -4 -11 -10z"/>
<path d="M3242 2788 c-15 -15 -16 -45 -1 -54 6 -3 18 1 27 10 14 14 15 18 3
25 -7 5 -10 14 -7 20 9 15 -7 14 -22 -1z"/>
<path d="M4870 2910 c6 -11 15 -18 21 -15 13 9 11 13 -12 25 -19 11 -20 10 -9
-10z"/>
<path d="M4911 2824 c0 -11 3 -14 6 -6 3 7 2 16 -1 19 -3 4 -6 -2 -5 -13z"/>
<path d="M2295 2510 c-8 -26 11 -59 33 -57 21 1 23 34 3 47 -8 4 -10 13 -7 19
4 6 1 11 -8 11 -8 0 -17 -9 -21 -20z"/>
<path d="M2238 2363 c6 -2 18 -2 25 0 6 3 1 5 -13 5 -14 0 -19 -2 -12 -5z"/>
<path d="M2220 2346 c0 -2 7 -7 16 -10 8 -3 12 -2 9 4 -6 10 -25 14 -25 6z"/>
<path d="M2240 1080 c-9 -6 -10 -10 -3 -10 6 0 15 5 18 10 8 12 4 12 -15 0z"/>
</g>
</svg>
