<svg version="1.0" xmlns="http://www.w3.org/2000/svg"
 width="346.000000pt" height="330.000000pt" viewBox="0 0 346.000000 330.000000"
 preserveAspectRatio="xMidYMid meet">

<g transform="translate(0.000000,330.000000) scale(0.100000,-0.100000)"
fill="#313131" stroke="none">
<path d="M1713 3273 c-17 -6 -17 -58 0 -71 8 -7 33 -8 70 -3 31 4 57 4 57 -1
0 -4 -6 -8 -14 -8 -9 0 -16 -12 -18 -27 -3 -26 -7 -28 -63 -34 -67 -7 -95 -16
-95 -31 0 -6 -6 -5 -15 2 -16 13 -50 6 -40 -9 3 -5 0 -13 -6 -17 -7 -4 -9 -3
-5 4 3 6 2 13 -4 17 -5 3 -10 2 -10 -3 0 -6 -7 -13 -16 -16 -8 -3 -12 -2 -9 4
3 6 -4 10 -16 10 -19 0 -20 2 -8 17 12 15 12 16 -4 10 -10 -4 -21 -7 -23 -7
-2 0 -4 -7 -4 -15 0 -16 -3 -17 -47 -18 -18 0 -27 4 -25 13 2 10 -8 11 -43 7
-36 -5 -45 -4 -45 8 0 8 7 15 15 15 8 0 15 7 15 16 0 13 -6 15 -32 9 -18 -4
-49 -10 -68 -14 -22 -5 -34 -12 -32 -21 2 -10 -7 -11 -41 -7 -48 7 -63 1 -47
-18 8 -9 -7 -11 -63 -7 -93 6 -112 -4 -144 -75 -22 -48 -28 -54 -50 -50 -14 3
-33 -3 -46 -13 -19 -16 -22 -28 -22 -100 l0 -82 -55 -22 c-106 -43 -118 -53
-131 -99 -18 -67 -12 -304 9 -368 24 -72 20 -86 -22 -81 -19 2 -36 0 -39 -5
-3 -5 8 -8 26 -7 18 2 24 1 14 -2 -9 -3 -17 -10 -17 -15 0 -14 -40 -11 -40 4
0 7 -4 6 -10 -4 -6 -11 -19 -15 -37 -12 l-28 3 25 -12 c14 -7 31 -18 38 -25
11 -11 10 -13 -8 -10 -12 2 -25 9 -30 16 -4 8 -24 14 -44 15 -20 0 -36 5 -36
9 0 5 -5 5 -10 2 -6 -4 -8 -10 -5 -14 4 -8 -40 -34 -78 -45 -10 -3 -16 -10
-12 -15 3 -5 1 -12 -5 -16 -5 -3 -10 -1 -10 6 0 7 -3 9 -6 6 -4 -4 -1 -13 5
-21 9 -11 10 -20 2 -35 -6 -11 -10 -24 -9 -28 1 -4 -3 -18 -10 -30 -6 -12 -9
-29 -6 -38 9 -21 -15 -65 -35 -66 -12 0 -11 -3 4 -9 20 -9 20 -9 -70 -15 -11
0 -23 3 -26 8 -4 6 -22 5 -45 -2 l-39 -11 38 5 c22 2 35 0 32 -6 -4 -5 -26 -9
-51 -9 -42 0 -44 -1 -44 -30 0 -18 -6 -33 -15 -36 -13 -5 -15 -40 -15 -231 0
-212 1 -228 21 -260 19 -30 20 -43 14 -121 -14 -189 33 -463 115 -664 72 -177
223 -364 339 -421 70 -34 169 -37 255 -7 32 11 94 29 139 41 45 12 116 38 157
57 50 24 94 37 132 40 78 6 274 -15 309 -33 21 -11 66 -15 172 -15 173 0 335
26 401 65 23 14 58 25 78 25 80 0 159 25 323 102 225 105 245 125 260 260 5
49 4 58 -9 58 -9 0 -16 7 -16 15 0 19 12 20 -132 -11 -143 -29 -178 -41 -178
-60 0 -8 -5 -14 -11 -14 -6 0 -9 6 -6 14 7 17 -16 15 -177 -20 -59 -13 -112
-22 -116 -19 -4 2 -13 -7 -20 -20 -7 -14 -17 -25 -22 -25 -5 0 -6 5 -3 10 10
17 -53 11 -190 -19 -110 -23 -132 -31 -141 -50 -11 -21 -13 -21 -22 -6 -8 16
-16 16 -73 6 -42 -7 -70 -18 -81 -31 -19 -23 -30 -26 -22 -7 4 11 -6 12 -48 6
-29 -4 -76 -8 -105 -8 -50 -1 -52 0 -44 22 9 26 77 67 106 65 21 -2 113 18
155 32 25 9 76 18 135 25 17 2 59 10 95 19 36 8 155 34 265 56 110 23 230 48
267 56 37 9 72 13 77 9 6 -3 11 -2 11 3 0 4 28 14 63 20 153 29 256 57 261 72
3 12 4 11 5 -2 1 -23 24 -23 78 -1 41 17 43 20 44 63 1 25 3 50 4 55 2 6 3 29
4 53 1 42 1 42 39 42 l39 0 -5 55 c-4 47 -2 55 13 55 14 0 15 3 5 15 -11 13
-8 15 19 15 17 0 31 -5 31 -10 0 -6 -5 -9 -11 -8 -6 2 -11 -21 -12 -59 -2 -55
0 -60 16 -52 13 8 17 23 17 69 0 33 4 60 10 60 6 0 10 8 10 19 0 10 7 35 16
56 13 31 19 36 39 31 25 -6 75 11 75 26 0 4 -6 17 -12 29 -11 17 -10 22 5 33
9 7 17 18 17 24 0 6 9 16 20 22 25 13 26 49 4 93 -22 42 -29 46 -78 42 -53 -4
-90 31 -91 88 l0 38 -40 -7 -40 -6 19 21 c11 12 21 19 24 16 14 -13 93 59 98
89 1 8 5 24 9 36 6 19 4 21 -14 15 -19 -6 -21 -3 -17 27 3 24 8 33 21 31 16
-1 17 6 12 55 -4 37 -12 61 -23 69 -13 9 -14 13 -4 13 11 0 11 3 2 12 -21 21
-13 36 26 48 20 7 41 16 47 21 16 15 -38 10 -69 -6 -16 -9 -31 -13 -34 -11
-11 12 10 38 40 50 28 12 37 12 60 0 15 -8 30 -14 33 -14 28 1 35 -1 30 -10
-3 -5 -2 -10 2 -10 5 0 17 -16 27 -35 28 -51 30 -36 4 24 -17 39 -27 51 -40
47 -11 -2 -18 2 -18 11 0 11 7 13 28 8 17 -3 40 0 57 9 l29 15 -25 10 c-13 5
-20 10 -15 10 4 1 -6 17 -23 36 -17 20 -31 42 -31 50 0 8 -5 15 -11 15 -6 0
-9 6 -6 13 3 7 -3 18 -13 24 -9 6 -20 26 -24 44 -6 34 -22 59 -37 59 -5 0 -7
-10 -4 -23 6 -21 3 -23 -37 -25 -40 -3 -44 0 -57 30 l-13 33 -8 -25 c-7 -23
-8 -23 -9 -3 -1 24 14 39 24 23 10 -17 24 -2 18 21 -5 16 -8 18 -15 7 -7 -9
-8 -6 -4 11 2 13 -4 45 -14 72 -11 27 -15 49 -10 49 6 0 10 -6 10 -12 0 -9 2
-10 8 -2 4 6 16 11 27 10 31 -2 33 19 3 22 -27 3 -40 22 -15 22 6 0 0 6 -15
14 -34 18 -112 10 -104 -10 4 -8 9 -21 12 -29 4 -9 -1 -17 -10 -21 -23 -9 -30
1 -17 24 8 16 7 21 -5 26 -16 6 -49 -12 -39 -22 2 -3 11 0 18 7 12 9 13 7 9
-14 -2 -14 -9 -22 -14 -19 -7 4 -7 0 -1 -12 6 -11 7 -30 2 -44 -4 -14 -7 -21
-8 -16 -1 5 -8 3 -17 -5 -11 -9 -14 -22 -10 -42 3 -17 1 -36 -5 -43 -9 -11 -7
-15 4 -20 10 -4 15 -16 14 -34 -2 -25 -4 -27 -18 -14 -8 8 -21 14 -27 14 -7 0
-12 5 -12 10 0 15 -43 30 -54 19 -5 -4 -23 -5 -39 -2 -27 5 -30 4 -23 -13 4
-12 4 -15 -2 -9 -5 6 -15 39 -21 75 -19 100 -16 96 -61 92 -29 -3 -40 0 -40
10 0 10 11 13 43 10 l42 -3 -41 38 c-41 38 -74 90 -74 116 0 8 8 32 17 53 9
22 16 42 15 47 -1 4 2 7 7 7 5 0 12 7 15 16 3 8 2 12 -3 9 -5 -3 -12 -1 -15 4
-4 5 -2 12 4 16 5 3 10 11 10 16 0 6 -4 8 -9 5 -5 -3 -8 2 -7 12 0 9 -4 16 -9
15 -6 -1 -12 16 -12 38 -1 21 2 39 7 39 4 0 3 13 -3 29 -8 22 -31 40 -90 71
-75 41 -94 47 -195 71 -23 6 -40 14 -38 18 3 4 -21 5 -52 3 -31 -3 -58 -8 -60
-12 -2 -4 -12 -6 -23 -3 -11 3 -19 2 -18 -3 4 -25 -4 -34 -32 -34 -17 0 -28
-4 -24 -10 3 -6 -1 -7 -9 -4 -21 8 -20 21 2 33 9 6 11 11 5 11 -7 0 -13 9 -13
20 0 22 -35 28 -44 8 -3 -9 -5 -8 -4 2 3 17 -28 68 -51 88 -15 12 -161 16
-188 5z m477 -129 c0 -14 -3 -15 -17 -3 -10 7 -20 15 -22 16 -2 2 5 3 17 3 14
0 22 -6 22 -16z m80 -168 c0 -59 -4 -108 -10 -111 -6 -4 -10 33 -10 104 0 67
4 111 10 111 6 0 10 -41 10 -104z m-345 67 c9 -24 -5 -213 -16 -213 -5 0 -9
52 -9 115 0 107 8 140 25 98z m-361 -35 c3 -13 6 -57 6 -98 0 -81 -7 -120 -21
-120 -5 0 -9 54 -9 120 0 112 9 151 24 98z m746 -142 c-7 -7 -10 14 -10 70 0
105 14 119 18 18 2 -44 -2 -82 -8 -88z m-330 59 c0 -57 -4 -95 -10 -95 -6 0
-10 38 -10 95 0 57 4 95 10 95 6 0 10 -38 10 -95z m-1081 -74 c-2 -59 -13 -91
-30 -91 -6 0 -7 5 -4 10 4 6 1 17 -5 25 -9 11 -10 107 -1 122 1 0 10 -1 21 -4
18 -5 21 -13 19 -62z m718 -43 c-2 -13 -4 -3 -4 22 0 25 2 35 4 23 2 -13 2
-33 0 -45z m734 -34 c61 5 79 4 79 -6 0 -7 3 -31 7 -52 4 -28 3 -37 -5 -32 -7
4 -12 20 -12 37 0 39 -15 38 -16 -2 -1 -26 -32 -63 -54 -64 -3 0 -11 -4 -19
-9 -8 -5 -16 -4 -21 4 -5 8 -9 4 -13 -11 -6 -22 -7 -22 -27 -4 -24 21 -26 35
-5 35 10 0 15 9 14 28 l-1 27 -9 -25 c-8 -23 -8 -22 -5 8 2 25 -1 32 -14 32
-13 0 -19 -12 -24 -41 -4 -23 -18 -56 -31 -73 -14 -18 -22 -36 -18 -39 3 -4 1
-7 -6 -7 -7 0 -12 11 -11 28 4 49 1 53 -27 50 -20 -2 -29 -9 -31 -25 -4 -25
-12 -29 -29 -12 -9 9 -22 6 -53 -10 -51 -26 -52 -26 -44 4 4 15 2 25 -5 25 -6
0 -12 10 -12 23 -1 16 -2 18 -6 5 -6 -24 -23 -23 -23 2 0 14 -5 18 -17 13 -11
-4 -14 -3 -9 6 4 6 2 19 -6 28 -12 15 -11 15 10 4 14 -7 22 -8 22 -1 0 5 7 10
15 10 10 0 15 10 15 30 0 20 5 30 15 30 10 0 15 -10 15 -31 0 -30 2 -31 33
-25 17 3 64 9 102 12 97 10 135 27 137 62 1 23 2 22 5 -7 l4 -34 80 7z m-30
43 c-1 -4 -1 -14 -1 -22 0 -8 -4 -15 -10 -15 -5 0 -10 12 -10 26 0 14 5 24 11
22 6 -2 10 -7 10 -11z m239 -21 c0 -2 -7 -9 -15 -16 -12 -10 -15 -10 -15 4 0
9 7 16 15 16 8 0 15 -2 15 -4z m-630 -16 c0 -5 -4 -10 -10 -10 -5 0 -10 5 -10
10 0 6 5 10 10 10 6 0 10 -4 10 -10z m590 -10 c0 -22 -12 -25 -41 -9 -25 13
-16 29 17 29 17 0 24 -5 24 -20z m-950 -44 c0 -14 4 -28 10 -31 15 -9 35 8 35
29 0 11 5 21 11 23 7 2 10 -5 7 -20 -3 -14 0 -28 6 -31 9 -6 165 8 217 19 20
4 21 1 17 -51 -3 -36 -12 -67 -25 -84 -11 -16 -17 -33 -14 -39 13 -20 -9 -12
-28 11 -15 17 -16 25 -7 40 16 25 14 28 -14 28 -14 0 -25 -6 -25 -13 0 -7 -6
-21 -13 -31 -12 -17 -15 -17 -29 -2 -19 18 -44 21 -53 6 -4 -6 -11 -8 -16 -5
-5 4 -9 -1 -9 -9 0 -20 -17 -20 -54 -1 -15 8 -37 15 -47 15 -20 0 -59 -33 -59
-49 0 -18 -19 -22 -40 -9 -25 16 -26 28 0 28 13 0 18 5 14 15 -13 32 -64 10
-64 -27 0 -19 -38 -26 -55 -9 -6 5 -39 14 -75 21 -140 26 -135 24 -134 48 0
12 -3 22 -8 22 -4 0 -8 -16 -8 -35 0 -19 5 -35 11 -35 5 0 8 4 5 9 -4 5 22 3
56 -5 86 -20 87 -20 53 -29 -16 -5 -39 -14 -49 -21 -13 -9 -25 -10 -37 -4 -12
7 -19 6 -22 -3 -3 -6 -6 -7 -6 -2 -1 14 21 41 39 48 10 4 8 6 -8 6 -14 1 -25
-7 -31 -21 -28 -72 -30 -75 -24 -38 l5 36 -54 11 c-29 6 -55 9 -57 7 -2 -2 -5
-18 -7 -35 -5 -40 -14 -51 -14 -16 0 43 -11 58 -58 78 -38 17 -44 23 -40 44 3
15 1 25 -6 25 -8 0 -7 3 1 8 6 4 10 22 9 40 -2 26 1 31 13 26 9 -3 57 -15 106
-26 50 -11 95 -24 101 -29 16 -13 127 -13 264 0 165 16 190 24 190 62 0 16 5
29 10 29 6 0 10 -11 10 -24z m-762 -28 c-2 -25 -8 -34 -24 -36 -29 -4 -58 -37
-50 -57 3 -8 18 -21 33 -27 l28 -12 -27 -4 c-16 -2 -28 -10 -28 -18 0 -26 -47
-36 -77 -17 -23 15 -25 21 -21 70 6 64 22 83 93 112 70 28 77 27 73 -11z m-10
-104 c-12 -12 -17 -12 -35 1 -27 19 -20 41 15 53 24 8 27 6 30 -16 2 -14 -3
-31 -10 -38z m1107 37 c3 -5 1 -12 -5 -16 -5 -3 -10 1 -10 9 0 18 6 21 15 7z
m65 -5 c0 -3 -4 -8 -10 -11 -5 -3 -10 -1 -10 4 0 6 5 11 10 11 6 0 10 -2 10
-4z m337 -32 c-3 -3 -12 -4 -19 -1 -8 3 -5 6 6 6 11 1 17 -2 13 -5z m273 -14
c0 -5 -7 -7 -15 -4 -11 5 -15 -1 -15 -26 0 -18 -4 -29 -10 -25 -14 8 -13 38 2
53 14 14 38 16 38 2z m-620 -30 c0 -5 -2 -10 -4 -10 -3 0 -8 5 -11 10 -3 6 -1
10 4 10 6 0 11 -4 11 -10z m-360 -10 c0 -5 -4 -10 -9 -10 -6 0 -13 5 -16 10
-3 6 1 10 9 10 9 0 16 -4 16 -10z m622 -2 c-8 -8 -9 -15 -1 -25 15 -17 63 -18
53 0 -5 9 -4 9 6 0 20 -18 4 -29 -42 -29 -33 1 -44 5 -46 19 -4 20 14 47 31
47 7 0 7 -4 -1 -12z m788 -18 c4 -3 10 -15 14 -27 6 -18 4 -20 -14 -16 -16 4
-20 13 -19 42 0 20 3 29 6 21 3 -8 9 -17 13 -20z m-80 -1 c0 -12 -29 -24 -37
-16 -3 4 -3 13 0 21 6 16 37 11 37 -5z m-2101 -5 c6 4 11 3 11 -2 0 -11 -40
-23 -52 -16 -4 3 -2 11 5 18 8 9 14 10 18 4 4 -6 12 -7 18 -4z m1418 10 c-3
-3 -12 -4 -19 -1 -8 3 -5 6 6 6 11 1 17 -2 13 -5z m-637 -9 c0 -2 -9 -9 -20
-15 -16 -9 -18 -8 -14 5 5 13 34 22 34 10z m190 -5 l-25 -7 25 -12 25 -12 -25
6 c-14 2 -29 5 -34 5 -5 0 -3 7 4 15 7 8 22 15 34 14 19 -1 18 -2 -4 -9z m90
-22 c0 -5 -10 -6 -22 -2 -20 6 -21 5 -9 -10 7 -9 21 -16 29 -16 12 0 13 -3 4
-12 -8 -8 -15 -8 -27 2 -12 10 -15 10 -15 -1 0 -10 -3 -10 -11 -2 -7 7 -8 19
-4 30 5 10 8 21 7 24 -1 3 10 4 23 1 14 -2 25 -9 25 -14z m687 -10 c-3 -7 -5
-2 -5 12 0 14 2 19 5 13 2 -7 2 -19 0 -25z m-1886 11 c33 -10 37 -14 28 -31
-13 -25 2 -44 41 -52 28 -5 43 -26 20 -26 -16 0 -12 -50 5 -56 9 -4 15 -19 15
-35 0 -16 4 -29 9 -29 17 0 42 -32 37 -46 -3 -8 -1 -14 4 -14 6 0 10 -18 10
-39 0 -22 4 -42 10 -46 5 -3 7 -12 3 -20 -3 -9 1 -15 11 -15 19 0 19 1 6 35
-8 20 -7 26 2 23 19 -7 32 -98 14 -98 -13 0 -39 16 -35 21 6 9 -18 35 -43 46
-16 7 -28 17 -28 23 0 5 -7 10 -15 10 -9 0 -15 -9 -15 -24 0 -23 -3 -24 -45
-21 -25 3 -53 9 -63 14 -13 8 -7 9 23 5 22 -2 34 -1 26 2 -11 5 -11 8 0 15 10
6 8 9 -8 9 -27 0 -43 26 -36 61 2 14 -5 54 -17 89 -18 53 -20 76 -15 137 4 40
10 73 13 73 2 0 22 -5 43 -11z m559 -4 c0 -8 -9 -15 -20 -15 -20 0 -26 11 -13
23 12 13 33 7 33 -8z m230 5 c0 -5 -4 -10 -10 -10 -5 0 -10 5 -10 10 0 6 5 10
10 10 6 0 10 -4 10 -10z m1470 -14 c0 -14 -4 -28 -10 -31 -6 -4 -10 7 -10 24
0 17 5 31 10 31 6 0 10 -11 10 -24z m-2100 -11 c0 -8 -8 -11 -20 -8 -20 5 -25
15 -14 26 9 9 34 -4 34 -18z m351 -65 c-3 -25 -9 -44 -13 -42 -5 1 -14 2 -21
2 -11 0 -11 10 -1 58 7 31 13 59 13 62 1 2 7 -4 15 -15 9 -14 11 -35 7 -65z
m252 63 c-7 -2 -21 -2 -30 0 -10 3 -4 5 12 5 17 0 24 -2 18 -5z m478 -16 c-13
-13 -26 -3 -16 12 3 6 11 8 17 5 6 -4 6 -10 -1 -17z m-401 -2 c0 -12 -19 -12
-23 0 -4 9 -1 12 9 8 7 -3 14 -7 14 -8z m-433 -10 c0 -8 -4 -15 -9 -15 -10 0
-11 14 -1 23 9 10 10 9 10 -8z m366 1 c32 -2 56 -31 39 -48 -7 -7 -17 -3 -31
11 -11 11 -32 23 -46 27 -14 3 -28 11 -31 16 -4 6 2 7 17 3 12 -4 36 -8 52 -9z
m1420 -6 c-5 -19 -23 -29 -23 -12 0 7 20 32 26 32 1 0 0 -9 -3 -20z m-1493
-10 c0 -5 -4 -10 -10 -10 -5 0 -10 5 -10 10 0 6 5 10 10 10 6 0 10 -4 10 -10z
m172 -22 c-6 -6 -15 -8 -19 -4 -4 4 -1 11 7 16 19 12 27 3 12 -12z m-576 -13
c9 -22 -3 -45 -20 -39 -7 3 -16 16 -19 30 -3 19 0 24 15 24 10 0 21 -7 24 -15z
m124 11 c0 -3 -4 -8 -10 -11 -5 -3 -10 -1 -10 4 0 6 5 11 10 11 6 0 10 -2 10
-4z m170 -6 c0 -15 47 -12 53 3 4 9 8 8 16 -3 27 -39 2 -52 -49 -25 -19 10
-31 11 -35 5 -8 -13 -25 -3 -25 16 0 8 9 14 20 14 11 0 20 -4 20 -10z m138
-35 c-12 -12 -43 -8 -46 7 -4 20 41 30 46 10 2 -8 2 -15 0 -17z m1002 8 c0
-22 -2 -25 -10 -13 -7 11 -12 12 -18 3 -4 -6 -34 -15 -67 -18 -56 -7 -61 -6
-61 13 0 13 7 20 21 20 11 1 43 5 70 10 28 5 53 10 58 11 4 0 7 -11 7 -26z
m58 11 c-15 -16 -18 -16 -33 0 -15 15 -14 16 16 16 31 0 32 -1 17 -16z m405
-14 c-3 -12 -8 -19 -11 -16 -5 6 5 36 12 36 2 0 2 -9 -1 -20z m-1943 -11 c0
-6 -4 -7 -10 -4 -5 3 -10 11 -10 16 0 6 5 7 10 4 6 -3 10 -11 10 -16z m1785
-13 c-10 -14 -22 -23 -27 -20 -5 3 1 17 13 30 28 30 36 24 14 -10z m205 8 c0
-8 -7 -14 -15 -14 -15 0 -21 21 -9 33 10 9 24 -2 24 -19z m-1783 5 c13 -13 62
-19 68 -8 6 9 52 6 62 -4 3 -4 32 -7 63 -7 101 0 150 -10 150 -31 0 -13 7 -19
21 -19 19 0 20 -4 13 -47 -8 -58 -12 -66 -30 -59 -8 3 -14 0 -13 -7 3 -27 -2
-37 -20 -37 -11 0 -23 5 -27 12 -5 8 -2 9 9 5 9 -3 19 -2 22 3 4 6 -9 10 -29
10 -22 0 -36 5 -36 13 0 9 -2 9 -8 0 -9 -14 -52 -19 -97 -11 -16 3 -24 3 -17
1 10 -4 10 -8 1 -19 -19 -23 -3 -44 35 -44 19 0 38 -5 42 -11 5 -9 -3 -10 -29
-5 -40 8 -56 -6 -33 -29 18 -18 32 -19 40 -2 5 10 7 10 12 0 8 -18 27 -16 21
1 -6 15 19 30 34 20 5 -3 9 -1 9 4 0 15 253 3 314 -15 11 -3 16 -1 13 5 -7 10
19 10 45 -2 10 -5 14 -14 11 -23 -4 -10 -2 -14 4 -10 7 5 9 0 6 -13 -3 -11
-11 -20 -19 -20 -7 0 -11 6 -8 14 4 9 -7 18 -33 27 -54 19 -67 18 -74 -11 -3
-14 -10 -24 -17 -22 -7 1 -13 -12 -14 -35 -2 -70 -5 -88 -16 -115 -6 -16 -8
-28 -5 -28 4 0 2 -5 -4 -11 -16 -16 -53 -1 -53 21 0 11 10 20 25 24 24 6 36
26 15 26 -5 0 -10 -4 -10 -10 0 -5 -4 -10 -10 -10 -5 0 -10 15 -10 34 0 39
-14 53 -35 36 -19 -16 -19 -40 -1 -40 9 0 12 -8 8 -25 -3 -18 -11 -25 -28 -25
-15 0 -24 -6 -24 -15 0 -9 -9 -15 -25 -15 -40 0 -28 35 15 43 21 4 20 4 -8 6
-32 1 -33 2 -27 35 6 28 3 36 -16 50 -13 9 -34 16 -47 16 -13 0 -37 7 -55 16
-27 14 -51 19 -135 26 -27 3 -5 33 35 48 l41 15 -29 60 c-28 59 -33 62 -29 18
1 -15 -4 -23 -15 -23 -9 0 -14 4 -11 9 3 4 8 44 11 88 l6 80 -28 -2 c-15 -1
-32 -4 -38 -5 -5 -2 -18 0 -28 5 -15 6 -16 10 -5 16 11 8 11 11 -1 18 -13 9
-9 12 30 20 3 0 10 -4 16 -10z m-244 -13 c4 -10 1 -13 -8 -9 -8 3 -12 9 -9 14
7 12 11 11 17 -5z m1187 -6 c0 -5 -4 -10 -10 -10 -5 0 -10 5 -10 10 0 6 5 10
10 10 6 0 10 -4 10 -10z m-117 -20 c3 -11 1 -20 -3 -20 -5 0 -16 -3 -26 -7
-12 -4 -15 -3 -10 5 4 7 2 12 -3 12 -6 0 -11 4 -11 9 0 8 14 15 41 20 4 0 9
-8 12 -19z m1067 0 c0 -9 -9 -25 -20 -35 -11 -10 -20 -24 -20 -32 0 -21 -17
-15 -39 13 -28 35 -27 41 9 49 17 4 28 10 26 13 -2 4 7 8 20 8 17 1 24 -3 24
-16z m-2116 -16 c4 -10 1 -14 -6 -12 -15 5 -23 28 -10 28 5 0 13 -7 16 -16z
m961 -14 c0 -16 -6 -25 -15 -25 -8 0 -18 -4 -22 -10 -5 -7 -10 -7 -15 0 -14
18 -72 14 -78 -5 -6 -19 -46 -34 -55 -21 -3 5 -15 11 -27 15 -23 7 -39 39 -28
56 4 6 41 9 90 8 46 -1 87 1 92 5 4 4 19 7 33 5 19 -2 25 -9 25 -28z m685 19
c0 -5 -5 -7 -11 -4 -6 4 -13 -2 -16 -14 -3 -12 -9 -21 -14 -21 -12 0 -11 7 1
31 11 20 40 26 40 8z m230 1 c12 -8 11 -10 -7 -10 -13 0 -23 5 -23 10 0 13 11
13 30 0z m-1963 -22 c-3 -8 -6 -5 -6 6 -1 11 2 17 5 13 3 -3 4 -12 1 -19z
m110 0 c-3 -8 -6 -5 -6 6 -1 11 2 17 5 13 3 -3 4 -12 1 -19z m657 -3 c-4 -8
-12 -15 -20 -15 -8 0 -16 0 -19 0 -3 0 -4 3 -2 8 1 4 5 6 10 5 4 -2 7 2 7 7 0
6 7 10 15 10 9 0 12 -6 9 -15z m1536 2 c0 -7 -10 -13 -21 -14 -21 -2 -21 -1
-3 12 24 18 24 18 24 2z m17 -19 c-3 -8 -6 -5 -6 6 -1 11 2 17 5 13 3 -3 4
-12 1 -19z m-917 -28 c0 -22 -16 -35 -24 -21 -4 5 -1 13 5 16 5 4 8 14 5 22
-3 8 -1 11 4 8 6 -3 10 -15 10 -25z m-43 -10 c-1 -11 -5 -20 -9 -20 -4 0 -8 9
-8 20 0 11 4 20 9 20 6 0 9 -9 8 -20z m325 -10 c20 -6 51 -24 68 -41 25 -25
32 -28 43 -17 17 16 11 38 -10 38 -10 0 -13 -6 -9 -16 5 -14 4 -15 -9 -4 -8 7
-15 15 -15 19 0 11 43 11 57 -1 15 -12 18 -94 3 -103 -5 -3 -10 -15 -10 -26 0
-10 5 -19 10 -19 6 0 10 -5 10 -11 0 -5 -4 -7 -10 -4 -6 4 -10 -6 -11 -22 -1
-15 -5 -39 -9 -53 -7 -18 -8 -12 -5 25 6 75 -12 140 -47 176 -17 16 -37 28
-44 25 -8 -3 -11 0 -7 10 4 10 0 12 -11 8 -9 -3 -16 -1 -16 5 0 6 -19 11 -45
11 -26 0 -45 -5 -45 -11 0 -7 -9 -9 -22 -6 -12 4 -28 1 -35 -5 -8 -6 -16 -8
-19 -5 -3 3 -36 -5 -72 -17 -85 -29 -135 -39 -127 -26 3 6 13 10 21 10 8 0 22
4 32 9 14 8 123 36 207 54 38 8 90 7 127 -3z m401 -89 c-40 -29 -83 -45 -83
-31 0 5 4 11 10 15 5 3 17 31 27 61 l17 56 34 -37 34 -37 -39 -27z m-763 65
c0 -22 -13 -26 -33 -11 -14 10 -15 14 -5 18 24 10 38 7 38 -7z m344 -27 c-2
-4 2 -10 8 -12 10 -4 9 -8 -2 -17 -12 -10 -11 -11 10 -8 l25 4 -9 -105 c-9
-108 -25 -146 -49 -122 -6 6 -21 11 -33 11 -19 0 -21 -6 -23 -60 -1 -38 2 -60
9 -60 7 0 9 8 5 20 -15 47 29 94 59 64 24 -23 21 -94 -3 -101 -11 -3 -22 -17
-26 -31 -3 -14 -12 -31 -19 -36 -22 -18 -38 -77 -25 -92 8 -10 6 -22 -10 -47
-17 -28 -21 -52 -22 -123 -1 -76 -2 -83 -10 -51 -5 22 -18 51 -30 65 l-20 26
20 8 c12 4 21 15 21 24 0 16 -2 16 -22 -2 -31 -26 -93 -60 -84 -45 9 15 5 14
-32 -5 -34 -16 -40 -29 -19 -38 6 -3 2 -3 -10 0 l-21 5 19 -51 c25 -67 17 -64
-15 6 -14 30 -30 53 -35 50 -5 -3 -14 1 -21 9 -11 13 -8 14 19 9 24 -5 40 -1
61 15 16 11 36 21 44 21 9 0 18 10 20 23 35 182 39 217 27 217 -6 0 -11 5 -11
11 0 5 5 7 10 4 6 -3 10 -1 10 4 0 6 7 11 16 11 8 0 12 5 9 10 -4 6 -14 9 -23
8 -11 -2 -20 10 -29 41 -16 55 -8 95 18 88 13 -4 19 0 19 12 0 9 5 22 12 29
17 17 -3 15 -29 -3 -19 -13 -21 -13 -25 9 -3 12 -1 33 3 44 6 16 4 22 -5 22
-8 0 -16 6 -19 14 -5 14 67 26 154 26 41 0 61 15 32 24 -10 3 -39 6 -65 8 -51
2 -60 14 -33 42 13 12 20 13 34 4 11 -7 17 -18 14 -27 -5 -14 -4 -14 12 1 19
18 13 37 -13 39 -9 1 -3 5 13 9 37 9 95 9 89 -1z m96 -53 c0 -19 -19 -41 -27
-33 -4 5 -1 12 7 17 13 9 13 10 0 10 -8 0 -20 16 -26 36 l-11 35 28 -27 c16
-15 29 -33 29 -38z m-1430 38 c0 -8 -4 -12 -10 -9 -5 3 -10 10 -10 16 0 5 5 9
10 9 6 0 10 -7 10 -16z m940 9 c-1 -14 -27 -43 -33 -37 -7 7 14 44 25 44 5 0
8 -3 8 -7z m-409 -39 c42 -3 44 -5 24 -16 -11 -7 -30 -13 -42 -14 -19 -2 -23
2 -23 25 0 34 12 48 21 24 3 -10 12 -18 20 -19z m1376 6 c-39 -33 -49 -37 -41
-15 6 15 50 44 67 45 4 0 -8 -13 -26 -30z m-2107 3 c0 -5 -9 -19 -20 -33 l-20
-25 0 33 c0 25 4 32 20 32 11 0 20 -3 20 -7z m1156 -59 c-9 -13 -17 -40 -18
-59 -1 -19 -6 -35 -12 -35 -7 0 -10 21 -8 61 3 50 7 59 19 54 13 -4 14 -3 4 9
-10 11 -9 15 6 18 24 5 28 -17 9 -48z m-1415 16 c5 0 9 -4 9 -10 0 -14 -43 -6
-48 10 -3 9 1 11 12 7 10 -4 22 -7 27 -7z m295 -30 c5 -13 6 -13 14 0 9 13 10
13 10 0 0 -11 3 -11 8 -3 5 8 14 7 32 -7 l24 -18 -27 5 c-21 4 -27 1 -27 -12
0 -13 6 -16 24 -13 19 4 22 1 18 -14 -5 -22 -42 -24 -42 -3 0 8 -6 15 -14 15
-14 0 -37 50 -35 79 1 17 1 17 15 -29z m-352 14 c9 -23 7 -46 -3 -40 -11 7
-21 56 -11 56 4 0 11 -7 14 -16z m1241 -14 c0 -22 -29 -18 -33 3 -3 14 1 18
15 15 10 -2 18 -10 18 -18z m-1399 -50 c3 0 2 9 -1 20 -4 11 -2 20 4 20 14 0
14 -47 1 -55 -16 -10 -40 21 -39 52 l1 28 14 -32 c8 -18 17 -33 20 -33z m2288
18 l-16 -32 -14 25 c-19 35 -17 39 16 39 l31 0 -17 -32z m-722 10 c-9 -9 -15
-9 -24 0 -9 9 -7 12 12 12 19 0 21 -3 12 -12z m543 -74 c-3 -35 -11 -64 -16
-64 -12 0 -11 22 3 93 15 73 22 57 13 -29z m-1722 45 c7 -27 -6 -24 -19 5 -9
19 -9 23 1 19 7 -2 15 -13 18 -24z m877 24 c0 -5 -5 -15 -10 -23 -8 -12 -10
-11 -10 8 0 12 5 22 10 22 6 0 10 -3 10 -7z m-507 -40 c-7 -2 -19 -2 -25 0 -7
3 -2 5 12 5 14 0 19 -2 13 -5z m-736 -53 c-1 -22 -5 -24 -27 -10 -13 8 -13 10
2 10 12 0 15 5 11 17 -4 10 -2 14 5 9 6 -3 10 -15 9 -26z m1673 20 c0 -5 -2
-10 -4 -10 -3 0 -8 5 -11 10 -3 6 -1 10 4 10 6 0 11 -4 11 -10z m67 -32 c-3
-7 -5 -2 -5 12 0 14 2 19 5 13 2 -7 2 -19 0 -25z m-1641 -3 c1 -8 -2 -15 -7
-15 -5 0 -9 10 -9 22 0 23 12 17 16 -7z m1563 11 c9 -10 9 -16 1 -21 -13 -8
-23 0 -26 20 -3 19 10 19 25 1z m-68 -84 c-8 -15 -10 -15 -15 -2 -10 32 -13
69 -5 64 5 -3 9 3 10 13 1 10 5 1 10 -20 6 -24 5 -45 0 -55z m-1551 74 c0 -2
-7 -7 -16 -10 -8 -3 -12 -2 -9 4 6 10 25 14 25 6z m30 -16 c0 -5 -2 -10 -4
-10 -3 0 -8 5 -11 10 -3 6 -1 10 4 10 6 0 11 -4 11 -10z m420 -46 c0 -7 -4
-16 -10 -19 -6 -3 -10 5 -10 19 0 14 -4 28 -10 31 -5 3 -10 12 -10 18 1 16 40
-32 40 -49z m1609 10 c-16 -20 -21 -12 -13 21 6 23 8 25 16 11 6 -11 6 -22 -3
-32z m328 30 c-3 -3 -12 -4 -19 -1 -8 3 -5 6 6 6 11 1 17 -2 13 -5z m-1995
-26 c-3 -14 -2 -19 6 -14 7 4 12 1 12 -8 0 -23 -28 -20 -35 4 -7 21 0 40 15
40 4 0 6 -10 2 -22z m-574 -13 c-3 -3 -9 2 -12 12 -6 14 -5 15 5 6 7 -7 10
-15 7 -18z m1568 -1 c-3 -9 -6 -20 -6 -26 0 -5 -10 -8 -22 -7 -13 2 -27 1 -33
-3 -5 -3 -28 -8 -50 -9 -37 -4 -40 -2 -43 22 -3 26 -1 26 54 28 32 0 60 3 62
6 3 3 14 5 25 5 13 0 17 -5 13 -16z m629 -24 c-9 -41 -17 -33 -9 9 4 17 9 30
11 27 3 -2 2 -19 -2 -36z m-825 15 c0 -8 -4 -15 -10 -15 -5 0 -10 7 -10 15 0
8 5 15 10 15 6 0 10 -7 10 -15z m-600 -32 c0 -32 -5 -28 -14 10 -4 19 -3 26 4
22 5 -3 10 -18 10 -32z m627 15 c-3 -8 -6 -5 -6 6 -1 11 2 17 5 13 3 -3 4 -12
1 -19z m-1303 3 c3 -4 3 -11 0 -14 -8 -8 -34 3 -34 14 0 11 27 12 34 0z m466
-46 c-11 -13 -10 -18 5 -29 22 -16 14 -66 -11 -66 -8 0 -29 -7 -46 -16 -29
-15 -31 -15 -24 2 6 15 1 13 -20 -6 -15 -14 -1 10 31 53 33 42 63 77 68 77 5
0 4 -7 -3 -15z m177 -17 c-3 -8 -6 -5 -6 6 -1 11 2 17 5 13 3 -3 4 -12 1 -19z
m-343 -9 c-3 -5 -10 -7 -15 -3 -5 3 -7 10 -3 15 3 5 10 7 15 3 5 -3 7 -10 3
-15z m2076 17 c0 -3 -4 -8 -10 -11 -5 -3 -10 -1 -10 4 0 6 5 11 10 11 6 0 10
-2 10 -4z m-1182 -26 c23 -7 42 -17 42 -22 0 -4 9 -8 20 -8 11 0 20 -4 20 -9
0 -4 -60 -8 -134 -8 -73 0 -139 -3 -145 -7 -17 -11 -13 -44 7 -49 9 -2 0 -4
-20 -3 l-38 1 0 56 c0 31 3 59 7 63 11 11 194 0 241 -14z m-1038 -20 c0 -20
-29 -55 -38 -46 -2 3 0 12 7 20 9 11 9 15 -1 18 -10 4 -10 8 1 21 16 20 31 13
31 -13z m1970 20 c0 -5 -5 -10 -11 -10 -5 0 -7 5 -4 10 3 6 8 10 11 10 2 0 4
-4 4 -10z m490 1 c0 -6 -4 -13 -10 -16 -5 -3 -10 1 -10 9 0 9 5 16 10 16 6 0
10 -4 10 -9z m-956 -65 c1 -30 -1 -53 -5 -50 -3 2 -7 29 -7 60 -1 71 10 63 12
-10z m656 60 c0 -3 -4 -8 -10 -11 -5 -3 -10 -1 -10 4 0 6 5 11 10 11 6 0 10
-2 10 -4z m-1670 -63 c0 -46 1 -47 16 -25 8 12 12 28 8 35 -3 6 5 0 20 -15
l26 -27 -24 -26 c-13 -14 -33 -25 -45 -25 -19 0 -21 5 -21 65 0 37 4 65 10 65
6 0 10 -21 10 -47z m861 7 c5 -55 2 -57 -58 -59 -31 0 -60 -6 -64 -12 -4 -7
-9 -4 -14 10 -3 11 -3 25 0 31 3 5 1 10 -4 10 -6 0 -11 -21 -11 -49 l0 -49 48
4 47 3 -44 -9 c-47 -10 -55 -15 -57 -33 0 -7 -2 -19 -2 -28 -2 -20 -39 -32
-60 -20 -13 7 -11 10 6 15 12 4 26 4 32 1 13 -8 13 55 0 75 -8 12 -10 11 -10
-7 0 -18 -6 -23 -24 -23 -23 0 -24 3 -19 35 6 34 5 35 -30 35 -36 0 -47 -12
-47 -51 0 -14 -7 -19 -25 -19 -21 0 -25 5 -25 29 0 16 3 43 6 61 l7 32 83 -5
c47 -3 84 -1 84 4 0 5 -5 9 -11 9 -5 0 -7 5 -4 10 9 14 45 13 45 -2 0 -7 6 -4
13 5 8 11 28 17 60 19 26 1 50 5 54 11 8 13 21 -5 24 -33z m122 -33 c-1 -44
-28 -101 -43 -92 -8 5 -3 126 6 154 4 12 7 12 21 -2 10 -10 16 -32 16 -60z
m77 59 c0 -8 -4 -17 -8 -20 -4 -2 -8 4 -8 15 0 10 4 19 8 19 4 0 8 -6 8 -14z
m-1900 -15 c0 -10 -39 -11 -45 -2 -2 5 7 9 20 9 14 0 25 -3 25 -7z m1290 -19
c30 -14 21 -32 -15 -32 -38 0 -38 0 -29 24 6 17 19 19 44 8z m1180 -41 l0 -49
-47 -11 -48 -10 59 4 c62 4 68 -2 14 -16 -28 -7 -25 -8 17 -4 41 4 46 2 30 -7
-10 -6 -52 -13 -91 -16 -90 -6 -107 6 -102 70 3 39 6 44 33 49 17 4 23 7 16 8
-22 2 -1 18 29 24 14 2 40 5 58 6 32 1 32 1 32 -48z m-1240 29 c0 -5 -7 -10
-16 -10 -8 0 -12 5 -9 10 3 6 10 10 16 10 5 0 9 -4 9 -10z m1297 -22 c-3 -8
-6 -5 -6 6 -1 11 2 17 5 13 3 -3 4 -12 1 -19z m37 13 c3 -5 -1 -14 -9 -21 -13
-10 -15 -9 -15 9 0 21 14 28 24 12z m99 -68 c-6 -14 -8 -14 -14 3 -12 30 -10
37 5 24 8 -6 12 -19 9 -27z m-803 7 c0 -5 -4 -10 -10 -10 -5 0 -10 5 -10 10 0
6 5 10 10 10 6 0 10 -4 10 -10z m860 3 c-1 -19 -18 -33 -34 -27 -13 5 -14 9
-5 20 12 15 39 19 39 7z m-1050 -23 c0 -5 -4 -10 -10 -10 -5 0 -10 5 -10 10 0
6 5 10 10 10 6 0 10 -4 10 -10z m-690 -38 c12 -10 8 -12 -23 -8 -20 3 -37 1
-37 -4 0 -5 -7 -7 -15 -4 -8 4 -15 1 -15 -4 0 -6 -8 -11 -17 -10 -18 0 -41 -3
-147 -21 -65 -11 -76 -9 -76 18 0 15 13 21 63 30 160 29 232 37 242 27 6 -6
17 -17 25 -24z m880 13 c0 -14 -4 -25 -10 -25 -5 0 -10 11 -10 25 0 14 5 25
10 25 6 0 10 -11 10 -25z m-633 -32 c-2 -21 -8 -29 -25 -31 -15 -2 -22 -10
-22 -25 0 -14 -3 -17 -8 -10 -4 6 -20 15 -35 18 -37 10 -35 26 3 19 27 -6 30
-4 30 18 0 31 7 38 36 38 19 0 22 -5 21 -27z m208 15 c14 -6 25 -15 25 -20 0
-8 -17 -1 -50 22 -20 13 -7 13 25 -2z m246 -27 c-17 -11 -111 -22 -122 -15
-22 13 -5 24 39 24 26 0 54 5 62 10 9 6 18 6 25 -1 6 -6 5 -13 -4 -18z m-1056
-2 c2 -9 -4 -16 -11 -16 -8 0 -14 9 -14 20 0 22 22 18 25 -4z m435 -7 c0 -15
-2 -15 -10 -2 -13 20 -13 33 0 25 6 -3 10 -14 10 -23z m751 -48 c1 -38 6 -75
13 -83 9 -12 8 -13 -2 -7 -11 7 -11 4 -1 -12 7 -12 16 -19 20 -16 4 2 9 -2 12
-10 3 -8 -1 -17 -9 -20 -28 -11 -52 50 -53 132 0 69 5 99 15 89 2 -2 4 -35 5
-73z m401 41 c-6 -34 -12 -32 -12 6 0 16 4 28 9 25 4 -3 6 -17 3 -31z m338 10
c0 -24 -12 -45 -25 -45 -8 0 -17 -5 -20 -10 -4 -7 2 -9 17 -5 l23 6 -2 -213
c-2 -117 -6 -226 -11 -243 -13 -46 -51 -60 -162 -60 -114 0 -159 19 -155 65 1
15 6 33 9 39 4 7 7 39 7 71 0 40 4 60 12 60 8 0 8 3 2 8 -9 6 -11 60 -6 210
l1 53 53 -6 c53 -5 39 5 -26 19 -22 5 -28 12 -25 28 3 21 9 22 102 25 54 1
101 5 104 8 11 11 102 2 102 -10z m47 -72 c-2 -16 -4 -3 -4 27 0 30 2 43 4 28
2 -16 2 -40 0 -55z m-998 11 c4 -4 -47 -6 -129 -7 -19 0 -38 -5 -42 -11 -5 -8
-8 -7 -8 2 0 8 -26 12 -92 14 -81 1 -87 2 -43 8 47 7 305 2 314 -6z m-438
-209 c-2 -160 0 -209 10 -215 9 -6 8 -12 -5 -25 -9 -10 -15 -23 -13 -29 3 -8
-30 -18 -97 -30 -55 -11 -96 -21 -89 -23 7 -3 49 3 94 11 46 9 84 14 87 12 6
-6 -24 -13 -126 -30 -103 -18 -127 -19 -97 -5 20 9 -9 7 -105 -7 l-40 -6 0
249 0 248 183 31 c100 18 187 31 192 29 6 -1 9 -76 6 -210z m582 208 c-7 -2
-19 -2 -25 0 -7 3 -2 5 12 5 14 0 19 -2 13 -5z m1097 -13 c0 -11 -2 -20 -4
-20 -2 0 -6 9 -9 20 -3 11 -1 20 4 20 5 0 9 -9 9 -20z m-1620 -7 c0 -10 -4
-14 -8 -8 -4 6 -11 13 -16 18 -5 4 -2 7 7 7 10 0 17 -8 17 -17z m34 -18 c-4
-8 -11 -15 -16 -15 -6 0 -5 6 2 15 7 8 14 15 16 15 2 0 1 -7 -2 -15z m650 -41
c4 -15 5 -28 3 -30 -8 -8 -37 8 -31 17 3 5 -2 6 -10 3 -21 -8 -20 6 2 22 24
19 29 17 36 -12z m-547 10 c-3 -3 -12 -4 -19 -1 -8 3 -5 6 6 6 11 1 17 -2 13
-5z m694 -102 c-18 -6 -13 -63 7 -79 11 -9 13 -16 6 -19 -7 -3 -10 -14 -7 -24
8 -29 -5 -24 -26 10 -21 36 -19 92 7 158 l17 42 3 -42 c2 -24 -1 -44 -7 -46z
m60 -107 l-9 -40 -1 33 c-1 19 -5 31 -11 27 -6 -4 -10 8 -10 29 0 20 5 36 11
36 6 0 9 7 6 15 -4 8 -2 17 3 20 6 4 11 21 12 38 1 18 4 -2 5 -43 2 -41 0 -93
-6 -115z m699 142 c0 -18 -7 -43 -15 -57 -8 -14 -18 -33 -21 -42 -3 -10 -10
-18 -14 -18 -5 0 -10 -10 -12 -22 -2 -17 -11 -24 -30 -26 -35 -4 -35 3 2 52
23 30 27 42 18 48 -10 6 -10 8 0 8 9 0 10 5 3 18 -12 23 -1 41 24 39 14 -1 21
5 23 21 5 33 22 16 22 -21z m85 30 c-12 -10 -16 -22 -13 -40 6 -32 3 -34 -11
-9 -11 21 10 62 31 62 7 0 4 -6 -7 -13z m-115 -17 c0 -5 -5 -10 -11 -10 -5 0
-7 5 -4 10 3 6 8 10 11 10 2 0 4 -4 4 -10z m-1065 -10 c3 -5 1 -10 -4 -10 -6
0 -11 5 -11 10 0 6 2 10 4 10 3 0 8 -4 11 -10z m265 -25 c7 -9 14 -28 16 -43
1 -15 3 -27 4 -27 2 0 4 -13 14 -66 l6 -34 -11 30 c-6 17 -17 44 -25 62 -8 17
-14 36 -14 41 0 6 -9 17 -20 25 -11 8 -17 17 -13 20 11 12 30 8 43 -8z m678
-42 c6 -19 -25 -16 -32 3 -4 11 -1 14 11 12 9 -2 18 -9 21 -15z m-2189 -27
c141 -73 219 -393 137 -560 -33 -67 -45 -77 -101 -84 -37 -4 -52 0 -85 22
-153 101 -213 435 -103 578 45 58 96 73 152 44z m1734 -46 c-7 -28 -13 -25
-13 6 0 14 4 23 9 20 5 -3 7 -15 4 -26z m-479 5 c-4 -8 -11 -12 -16 -9 -6 4
-5 10 3 15 19 12 19 11 13 -6z m-208 -7 c4 -7 4 -10 -1 -6 -4 4 -14 3 -22 -3
-8 -8 -13 -8 -13 -1 0 6 6 13 13 15 6 3 13 6 14 6 1 1 5 -5 9 -11z m-166 -33
c0 -5 -5 -3 -10 5 -5 8 -10 20 -10 25 0 6 5 3 10 -5 5 -8 10 -19 10 -25z m624
-15 c7 -24 6 -24 -8 -6 -9 11 -16 27 -16 35 0 21 16 2 24 -29z m-143 21 c-7
-5 -12 -11 -12 -15 1 -3 -2 -5 -6 -3 -5 1 -7 7 -5 12 2 6 -2 5 -8 -1 -6 -6
-22 -9 -36 -6 -45 8 -33 18 24 19 31 1 50 -2 43 -6z m70 -42 c12 -17 22 -45
23 -62 2 -26 -3 -34 -26 -44 -25 -11 -27 -15 -18 -38 15 -39 12 -122 -5 -154
-8 -16 -12 -31 -9 -34 3 -3 2 -12 -2 -19 -5 -7 -9 -20 -9 -28 0 -8 -10 -16
-22 -18 -17 -3 -23 2 -23 16 0 11 -6 23 -12 25 -7 3 -2 6 12 7 21 0 22 2 9 10
-11 6 -39 3 -85 -10 -38 -11 -79 -20 -91 -20 -12 0 -43 -7 -69 -16 -25 -8 -61
-16 -79 -17 -18 -1 -31 -5 -28 -9 2 -5 -5 -8 -16 -8 -30 0 -51 -11 -51 -26 0
-10 7 -13 23 -9 57 13 362 75 370 75 4 0 5 -4 2 -10 -3 -5 -15 -10 -26 -10
-10 0 -19 -7 -19 -15 0 -17 -17 -20 -22 -4 -2 6 -56 -1 -153 -21 -176 -36
-185 -38 -185 -51 0 -6 -4 -8 -9 -5 -12 8 -143 -22 -155 -35 -6 -5 -13 -9 -18
-9 -8 0 67 116 82 125 6 4 8 10 5 15 -3 5 -34 0 -70 -10 -64 -18 -65 -18 -65
1 0 18 44 38 57 25 3 -3 12 -1 19 5 8 7 14 7 19 -1 7 -12 35 12 35 31 0 6 -14
36 -31 66 -17 30 -29 56 -26 59 2 3 10 -9 17 -26 7 -16 17 -27 22 -24 6 4 6 9
1 13 -11 8 -49 93 -45 103 1 5 -2 8 -7 8 -5 0 -11 -6 -14 -12 -2 -7 -2 -3 -1
9 4 23 -12 41 -18 21 -3 -7 -7 -5 -11 6 -4 10 -3 15 3 11 6 -3 10 -2 10 3 0 6
9 8 21 5 11 -3 18 -11 15 -18 -4 -13 38 -57 65 -67 11 -4 15 0 15 16 -1 13 5
21 15 20 11 -1 14 6 11 27 -3 21 0 29 10 29 8 0 25 9 38 20 27 24 50 26 50 5
0 -8 7 -15 15 -15 9 0 15 9 15 24 0 21 6 25 43 30 86 13 176 40 170 50 -5 8
-2 8 8 0 8 -6 25 -8 39 -4 14 3 44 2 68 -3 33 -7 48 -5 65 7 12 8 23 15 24 15
1 1 11 -13 24 -30z m168 -19 l23 -35 -26 28 c-14 15 -26 33 -26 39 0 13 0 14
29 -32z m-13 -102 c-1 -32 -5 -44 -18 -46 -19 -4 -25 13 -8 23 6 3 10 16 10
29 0 19 7 36 15 36 2 0 2 -19 1 -42z m-50 -57 c-4 -5 0 -11 6 -14 17 -6 9 -13
-24 -21 -18 -4 -28 -2 -28 4 0 6 5 8 10 5 6 -3 10 0 10 9 0 8 6 17 13 19 18 8
19 8 13 -2z m-2189 -63 c-3 -7 -5 -2 -5 12 0 14 2 19 5 13 2 -7 2 -19 0 -25z
m964 -36 c-5 -9 -5 -28 0 -46 5 -18 5 -34 0 -39 -5 -5 -7 -16 -4 -23 3 -8 2
-22 -2 -31 -7 -17 -8 -16 -15 2 -6 15 -7 10 -7 -17 1 -21 4 -32 8 -26 5 8 10
2 15 -16 6 -27 -10 -51 -27 -40 -4 2 -10 -6 -12 -18 -3 -13 -5 20 -5 72 0 52
-3 120 -6 150 -4 34 -3 47 2 35 9 -19 9 -19 22 2 16 24 45 20 31 -5z m1424 18
c3 -5 1 -10 -4 -10 -6 0 -11 5 -11 10 0 6 2 10 4 10 3 0 8 -4 11 -10z m155
-10 c0 -5 -4 -10 -10 -10 -5 0 -10 5 -10 10 0 6 5 10 10 10 6 0 10 -4 10 -10z
m-191 -22 c0 -16 -2 -18 -6 -8 -3 8 -11 18 -17 22 -7 5 -4 8 7 8 11 0 17 -7
16 -22z m-1064 -9 c-7 -10 36 -6 90 8 38 10 1 -15 -45 -30 l-45 -15 -3 -56
c-2 -31 -6 -56 -10 -57 -4 0 -18 -2 -32 -5 -79 -13 -79 -13 -86 19 -3 17 -14
32 -25 34 -10 3 -19 9 -19 13 0 5 9 6 20 3 17 -5 20 0 21 28 1 19 1 36 1 39 0
3 23 6 51 8 28 2 58 7 67 12 20 12 22 12 15 -1z m348 -136 c-7 -2 -19 -2 -25
0 -7 3 -2 5 12 5 14 0 19 -2 13 -5z m-686 -108 c0 -8 -4 -15 -9 -15 -10 0 -11
14 -1 23 9 10 10 9 10 -8z m416 -31 c-9 -15 -19 -21 -21 -15 -4 13 16 41 29
41 5 0 2 -12 -8 -26z m-439 1 c3 -9 0 -15 -9 -15 -9 0 -12 6 -9 15 4 8 7 15 9
15 2 0 5 -7 9 -15z m535 11 c-10 -10 -79 -24 -79 -16 0 8 22 14 69 19 8 0 12
-1 10 -3z m-169 -30 c0 -19 -78 -32 -93 -17 -16 16 1 25 52 28 29 2 41 -1 41
-11z m-147 -53 c-7 -2 -19 -2 -25 0 -7 3 -2 5 12 5 14 0 19 -2 13 -5z m-133
-33 c0 -5 -8 -10 -17 -10 -15 0 -16 2 -3 10 19 12 20 12 20 0z m-66 -9 c3 -5
-3 -11 -13 -14 -14 -3 -18 -1 -14 9 6 16 19 18 27 5z m133 -187 c-3 -3 -12 -4
-19 -1 -8 3 -5 6 6 6 11 1 17 -2 13 -5z m-97 -31 c0 -3 -7 -3 -15 1 -8 3 -15
1 -15 -3 0 -5 -10 -6 -22 -3 -23 6 -23 6 2 12 25 7 50 3 50 -7z m-76 -13 c3
-3 -3 -6 -12 -6 -9 -1 -25 -5 -35 -9 -12 -5 -16 -3 -12 7 5 13 47 19 59 8z"/>
<path d="M1188 2533 c7 -3 16 -2 19 1 4 3 -2 6 -13 5 -11 0 -14 -3 -6 -6z"/>
<path d="M1394 2056 c-18 -14 -18 -15 0 -22 11 -4 21 -2 27 7 19 31 5 38 -27
15z"/>
<path d="M1651 2044 c0 -11 3 -14 6 -6 3 7 2 16 -1 19 -3 4 -6 -2 -5 -13z"/>
<path d="M1475 1920 c4 -6 11 -8 16 -5 14 9 11 15 -7 15 -8 0 -12 -5 -9 -10z"/>
<path d="M1601 1914 c0 -11 3 -14 6 -6 3 7 2 16 -1 19 -3 4 -6 -2 -5 -13z"/>
<path d="M2322 1650 c0 -14 2 -19 5 -12 2 6 2 18 0 25 -3 6 -5 1 -5 -13z"/>
<path d="M1635 1590 c-8 -13 4 -32 16 -25 12 8 12 35 0 35 -6 0 -13 -4 -16
-10z"/>
<path d="M1765 1587 c-4 -10 -5 -21 -1 -24 10 -10 18 4 13 24 -4 17 -4 17 -12
0z"/>
<path d="M2610 1344 c-9 -3 -21 -13 -27 -23 -10 -16 -9 -18 5 -14 9 2 28 13
42 23 24 19 17 24 -20 14z"/>
<path d="M2736 1323 c-6 -14 -5 -15 5 -6 7 7 10 15 7 18 -3 3 -9 -2 -12 -12z"/>
<path d="M2525 1000 c3 -5 8 -10 11 -10 2 0 4 5 4 10 0 6 -5 10 -11 10 -5 0
-7 -4 -4 -10z"/>
<path d="M1296 1384 c-8 -20 1 -34 20 -34 8 0 14 10 14 25 0 28 -24 34 -34 9z"/>
<path d="M1093 1344 c-9 -23 11 -38 26 -20 13 16 7 36 -10 36 -5 0 -12 -7 -16
-16z"/>
<path d="M1199 1323 c-51 -8 -64 -35 -67 -147 -3 -87 -1 -106 13 -120 27 -26
110 -9 158 32 14 13 17 33 17 119 0 102 0 104 -26 113 -25 10 -46 11 -95 3z"/>
<path d="M1297 1054 c-15 -15 -7 -45 11 -42 9 2 17 12 17 22 0 20 -16 31 -28
20z"/>
<path d="M1094 1005 c-8 -19 9 -40 24 -31 13 8 9 39 -6 44 -7 2 -15 -4 -18
-13z"/>
<path d="M647 1143 c-15 -14 -7 -80 12 -97 11 -10 22 -13 25 -8 3 5 -1 15 -9
22 -16 13 -19 38 -9 64 6 15 8 15 21 -1 13 -16 13 -16 3 5 -10 22 -30 29 -43
15z"/>
<path d="M737 1143 c-10 -10 -8 -72 3 -92 8 -15 6 -17 -15 -14 -50 10 -77 -80
-51 -170 29 -100 92 -129 130 -59 14 24 15 25 16 6 0 -12 9 -32 19 -45 20 -24
20 -24 35 -4 19 25 20 31 2 38 -10 4 -13 1 -9 -9 3 -7 0 -14 -5 -14 -15 0 -25
36 -16 62 6 19 7 19 16 5 5 -10 14 -17 20 -17 6 0 3 9 -8 21 -13 14 -25 18
-42 14 -14 -3 -21 -2 -18 4 3 5 2 21 -4 35 -5 14 -5 28 -1 31 5 3 11 -2 15
-10 8 -21 23 -19 36 5 8 15 8 18 -3 14 -20 -7 -40 21 -32 46 8 25 31 21 27 -5
-2 -10 1 -14 7 -10 16 10 13 22 -11 45 -22 20 -23 20 -36 3 -8 -11 -11 -30 -8
-47 6 -28 5 -28 -20 9 -14 21 -21 41 -16 44 9 6 32 45 32 56 0 3 -6 0 -14 -7
-8 -7 -11 -17 -8 -23 3 -5 -2 -4 -11 4 -21 17 -23 61 -2 61 18 0 20 -16 3 -23
-10 -4 -10 -6 -1 -6 21 -2 25 20 7 40 -18 20 -27 23 -37 12z"/>
<path d="M683 1087 c2 -20 19 -25 26 -6 2 6 -1 9 -7 5 -6 -3 -13 0 -16 6 -3 7
-5 5 -3 -5z"/>
<path d="M597 1030 c-18 -26 -9 -79 16 -94 22 -14 42 11 25 31 -7 9 -7 13 1
13 6 0 11 8 10 18 0 10 -3 12 -6 4 -2 -6 -10 -9 -15 -6 -6 4 -8 3 -5 -2 3 -6
2 -16 -4 -24 -7 -12 -9 -10 -9 7 0 12 6 28 13 35 12 11 12 16 1 26 -10 9 -16
8 -27 -8z"/>
<path d="M610 875 c-24 -29 9 -114 40 -103 7 2 3 14 -9 30 -23 28 -27 48 -11
48 6 0 10 9 10 20 0 24 -13 26 -30 5z"/>
<path d="M644 844 c-4 -17 -1 -31 10 -42 15 -15 16 -14 16 11 0 18 -4 26 -11
21 -8 -4 -9 0 -4 15 3 11 4 21 1 21 -3 0 -9 -12 -12 -26z"/>
<path d="M687 763 c-14 -13 -6 -71 12 -94 l18 -23 17 32 c18 35 21 55 5 32 -8
-12 -9 -9 -5 12 5 21 1 30 -13 38 -23 12 -26 12 -34 3z m37 -45 c-1 -18 -3
-35 -4 -38 0 -3 -5 2 -10 10 -14 22 -12 60 4 60 9 0 13 -10 10 -32z"/>
<path d="M777 763 c-11 -10 -8 -72 3 -94 15 -26 35 -24 48 6 16 34 15 43 -1
20 -17 -23 -37 -12 -37 21 0 15 6 24 16 24 14 0 14 3 4 15 -14 16 -23 19 -33
8z"/>
<path d="M2090 1061 c0 -11 -5 -23 -11 -26 -6 -5 -4 -12 8 -21 16 -12 16 -13
1 -14 -9 0 -20 -4 -23 -10 -4 -6 2 -7 17 -2 13 5 33 7 46 6 27 -2 27 0 1 35
-12 16 -18 34 -15 40 4 6 0 11 -8 11 -9 0 -16 -8 -16 -19z"/>
<path d="M1987 956 c-5 -12 -34 -19 -134 -32 -28 -4 -32 -2 -26 13 6 16 5 16
-10 4 -9 -7 -17 -22 -17 -33 0 -18 4 -20 33 -14 17 4 59 11 93 16 70 11 94 19
94 31 0 4 -7 6 -15 3 -11 -5 -13 -2 -9 10 3 9 4 16 1 16 -3 0 -7 -6 -10 -14z"/>
<path d="M1691 912 c-12 -23 -4 -55 13 -49 15 5 20 47 8 59 -7 7 -14 3 -21
-10z"/>
<path d="M1610 724 c0 -8 5 -12 10 -9 6 3 10 10 10 16 0 5 -4 9 -10 9 -5 0
-10 -7 -10 -16z"/>
<path d="M1648 663 c7 -3 16 -2 19 1 4 3 -2 6 -13 5 -11 0 -14 -3 -6 -6z"/>
<path d="M1035 740 c-3 -5 -2 -10 4 -10 5 0 13 5 16 10 3 6 2 10 -4 10 -5 0
-13 -4 -16 -10z"/>
<path d="M1030 604 c0 -8 5 -12 10 -9 6 4 8 11 5 16 -9 14 -15 11 -15 -7z"/>
<path d="M2014 3207 c-8 -22 -1 -30 21 -25 14 3 14 5 1 23 -14 19 -15 19 -22
2z"/>
<path d="M2633 2863 c-7 -3 -13 -14 -13 -24 0 -13 4 -18 11 -13 7 4 25 7 41 6
15 0 26 4 23 9 -4 5 13 9 37 9 32 0 39 3 28 10 -14 10 -101 11 -127 3z"/>
<path d="M2638 2769 c-10 -5 -18 -19 -18 -29 0 -11 -7 -20 -15 -20 -22 0 -19
-46 5 -70 46 -46 110 -6 104 65 -5 55 -37 77 -76 54z"/>
<path d="M2828 2643 c6 -2 18 -2 25 0 6 3 1 5 -13 5 -14 0 -19 -2 -12 -5z"/>
<path d="M2678 2599 c-10 -5 -18 -15 -18 -21 0 -7 5 -6 15 2 13 11 15 8 15
-14 0 -19 -4 -25 -12 -20 -10 5 -10 4 -1 -6 6 -7 9 -18 7 -24 -2 -6 4 -12 14
-12 16 0 18 5 11 29 -4 15 -5 35 -2 43 3 8 0 14 -7 14 -6 0 -8 5 -5 10 8 12 5
12 -17 -1z"/>
<path d="M3099 2547 c6 -8 7 -18 3 -22 -4 -5 -1 -5 6 -1 10 6 10 11 1 22 -6 8
-14 14 -16 14 -3 0 0 -6 6 -13z"/>
<path d="M2865 2539 c-4 -6 -5 -12 -2 -15 2 -3 7 2 10 11 7 17 1 20 -8 4z"/>
<path d="M3112 2480 c0 -14 2 -19 5 -12 2 6 2 18 0 25 -3 6 -5 1 -5 -13z"/>
<path d="M2700 2480 c-13 -8 -12 -10 3 -10 9 0 17 5 17 10 0 12 -1 12 -20 0z"/>
<path d="M2685 2420 c-3 -5 -1 -10 4 -10 6 0 11 5 11 10 0 6 -2 10 -4 10 -3 0
-8 -4 -11 -10z"/>
<path d="M2710 2410 c0 -5 4 -10 9 -10 6 0 13 5 16 10 3 6 -1 10 -9 10 -9 0
-16 -4 -16 -10z"/>
<path d="M3305 2122 c-6 -4 -15 -14 -22 -22 -10 -13 -6 -15 29 -12 24 3 35 7
28 12 -7 4 -15 12 -19 18 -4 6 -11 8 -16 4z"/>
<path d="M3303 2058 c2 -7 9 -13 15 -12 7 1 21 2 33 3 31 2 12 21 -22 21 -20
0 -29 -4 -26 -12z"/>
<path d="M3143 2040 c-36 -14 -28 -33 10 -25 54 11 67 16 67 26 0 11 -48 11
-77 -1z"/>
<path d="M3390 2035 c7 -9 15 -13 17 -11 7 7 -7 26 -19 26 -6 0 -6 -6 2 -15z"/>
<path d="M3320 2021 c0 -16 19 -23 40 -16 30 10 24 25 -10 25 -16 0 -30 -4
-30 -9z"/>
<path d="M3424 2013 c3 -6 0 -13 -6 -16 -7 -2 -10 -8 -5 -12 4 -5 13 -3 19 3
9 9 9 15 -1 25 -9 8 -12 8 -7 0z"/>
<path d="M3162 2002 c-35 -10 -22 -27 18 -23 40 4 50 8 50 22 0 10 -33 10 -68
1z"/>
<path d="M3335 1981 c-3 -5 0 -13 5 -16 16 -10 62 4 55 15 -8 13 -52 13 -60 1z"/>
<path d="M3178 1963 c-30 -5 -40 -34 -10 -32 36 3 76 14 76 23 1 11 -27 14
-66 9z"/>
<path d="M3423 1962 c-8 -5 -9 -18 -3 -42 l8 -35 1 33 c1 19 5 31 11 27 6 -3
10 1 10 9 0 17 -8 20 -27 8z"/>
<path d="M3353 1943 c-26 -10 -12 -23 23 -23 31 0 35 2 24 15 -13 15 -25 17
-47 8z"/>
<path d="M3215 1923 c-11 -2 -30 -6 -42 -9 -35 -7 -27 -24 11 -24 44 0 66 9
66 26 0 8 -3 13 -7 13 -5 -1 -17 -3 -28 -6z"/>
<path d="M3346 1884 c-4 -9 2 -14 17 -14 20 0 59 18 47 21 -32 8 -59 5 -64 -7z"/>
<path d="M3195 1869 c-4 -6 -13 -8 -21 -5 -8 3 -14 -1 -14 -11 0 -12 7 -14 31
-9 17 3 37 6 44 6 7 0 15 7 19 15 4 11 -2 15 -24 15 -16 0 -32 -5 -35 -11z"/>
<path d="M3410 1863 c0 -6 -9 -9 -20 -6 -14 4 -20 0 -20 -11 0 -9 6 -16 14
-16 17 0 41 28 32 37 -3 3 -6 2 -6 -4z"/>
<path d="M3155 1821 c-7 -13 5 -19 38 -19 16 0 27 6 27 14 0 16 -55 20 -65 5z"/>
<path d="M3301 1814 c0 -11 3 -14 6 -6 3 7 2 16 -1 19 -3 4 -6 -2 -5 -13z"/>
<path d="M3402 1814 c-7 -8 -8 -14 -3 -14 10 0 25 19 20 25 -2 1 -10 -3 -17
-11z"/>
<path d="M3140 1755 c0 -12 6 -15 21 -10 15 5 19 4 14 -5 -5 -8 0 -11 16 -8
13 1 25 10 27 19 2 11 -7 16 -38 17 -31 2 -40 -1 -40 -13z"/>
<path d="M3252 1707 c-25 -27 -30 -46 -6 -27 15 13 38 50 31 50 -2 0 -13 -10
-25 -23z"/>
<path d="M3120 1710 c0 -5 15 -10 33 -10 24 0 28 3 17 10 -20 13 -50 13 -50 0z"/>
</g>
</svg>
